<?xml version="1.0" encoding="UTF-8" standalone="no"?>
<!-- Created with Inkscape (http://www.inkscape.org/) -->

<svg
   width="200mm"
   height="200mm"
   viewBox="0 0 200 200"
   version="1.1"
   id="svg5"
   inkscape:version="1.1.1 (3bf5ae0d25, 2021-09-20)"
   sodipodi:docname="Centraldrawing1.svg"
   xmlns:inkscape="http://www.inkscape.org/namespaces/inkscape"
   xmlns:sodipodi="http://sodipodi.sourceforge.net/DTD/sodipodi-0.dtd"
   xmlns="http://www.w3.org/2000/svg"
   xmlns:svg="http://www.w3.org/2000/svg">
  <sodipodi:namedview
     id="namedview7"
     pagecolor="#ffffff"
     bordercolor="#666666"
     borderopacity="1.0"
     inkscape:pageshadow="2"
     inkscape:pageopacity="0.0"
     inkscape:pagecheckerboard="0"
     inkscape:document-units="mm"
     showgrid="false"
     width="200mm"
     inkscape:zoom="0.74118967"
     inkscape:cx="420.27029"
     inkscape:cy="506.61796"
     inkscape:window-width="1920"
     inkscape:window-height="1017"
     inkscape:window-x="-8"
     inkscape:window-y="-8"
     inkscape:window-maximized="1"
     inkscape:current-layer="layer1" />
  <defs
     id="defs2" />
  <g
     inkscape:label="Layer 1"
     inkscape:groupmode="layer"
     id="layer1">
    <path
       style="fill:none;stroke:#000000;stroke-width:0.264583px;stroke-linecap:butt;stroke-linejoin:miter;stroke-opacity:1"
       d="M 185.98197,127.08173 H 17.134615 c 17.079623,-31.304801 37.190788,-14.12445 67.022006,-7.45708 28.855009,6.44919 67.126039,1.79824 101.825349,7.45708 z"
       id="path857"
       sodipodi:nodetypes="ccsc" />
    <path
       style="fill:none;stroke:#000000;stroke-width:0.264583px;stroke-linecap:butt;stroke-linejoin:miter;stroke-opacity:1"
       d="m 30.342547,125.65384 c 16.018349,-5.4879 30.900344,-11.79668 48.905046,-21.06129 21.768057,-11.20112 23.939987,19.74925 51.760817,0.71394 41.97648,-34.237337 49.37568,22.40697 54.97356,21.77524 z"
       id="path1329"
       sodipodi:nodetypes="csccc" />
    <path
       style="fill:#ff922a;fill-opacity:0.768627;stroke:none;stroke-width:0.134918"
       d="m 70.011208,473.90029 c 5.056916,-9.81426 16.974579,-25.40629 26.554392,-34.74145 11.28602,-10.99778 20.74025,-17.00904 34.52823,-21.95398 8.70759,-3.12289 12.00158,-3.5569 27.43509,-3.61474 9.64666,-0.0362 21.55748,0.74682 26.46851,1.73995 8.60605,1.74035 8.98336,1.98665 10.42754,6.80692 0.82413,2.75068 3.62936,7.49077 6.23386,10.53353 l 4.73544,5.53231 -17.18676,7.07879 c -21.2571,8.75526 -54.61944,21.49701 -66.76922,25.50051 -5.00883,1.65047 -9.10698,3.55849 -9.10698,4.24004 0,0.72225 17.58832,1.31953 42.16195,1.43179 23.18907,0.10594 78.58987,0.59387 123.11289,1.08431 76.12082,0.8385 72.23498,0.90751 -65.12546,1.15658 l -146.076415,0.26487 z"
       id="path2783"
       transform="scale(0.26458333)" />
    <path
       style="fill:#ff922a;fill-opacity:0.768627;stroke:none;stroke-width:0.134918"
       d="m 675.94034,475.47559 c -34.79598,-4.7866 -79.66236,-7.09211 -195.09894,-10.02538 -107.28607,-2.72616 -146.77684,-7.94101 -210.43403,-27.7883 l -11.22164,-3.49873 3.41704,-5.16349 c 1.87937,-2.83992 3.75677,-7.69644 4.17201,-10.79227 l 0.75498,-5.62878 21.72838,-10.66178 c 25.24816,-12.38889 35.12972,-15.30229 48.68506,-14.35393 11.62652,0.81341 20.48925,4.11072 37.12948,13.81371 30.25477,17.64169 40.16342,21.32237 57.34025,21.29968 23.64859,-0.0312 42.65224,-8.38792 77.57798,-34.11425 14.79315,-10.89665 41.2351,-24.62131 53.9673,-28.01165 13.16273,-3.50499 34.67141,-3.03385 45.1976,0.99002 26.10057,9.97753 46.18574,32.67883 66.72538,75.4165 5.21819,10.8577 11.87894,24.44655 14.80166,30.19744 l 5.31404,10.45616 -3.61965,-0.18589 c -1.99081,-0.10224 -9.38742,-0.97932 -16.4369,-1.94906 z"
       id="path2859"
       transform="scale(0.26458333)" />
    <path
       style="fill:#ff922a;fill-opacity:0.768627;stroke:none;stroke-width:0.134918"
       d="m 675.94034,474.82165 c -25.85887,-3.84397 -81.82379,-6.89712 -171.34615,-9.34776 -128.77041,-3.52502 -160.90839,-7.21532 -224.84835,-25.81858 l -19.09804,-5.55656 3.24515,-6.10329 c 1.78483,-3.35681 3.24515,-7.41465 3.24515,-9.01743 0,-5.04154 2.87818,-7.16485 21.97303,-16.21012 25.11428,-11.89668 32.39195,-14.2034 44.81149,-14.2034 13.6438,0 22.50101,3.15391 46.12796,16.42546 25.88638,14.54069 35.22635,17.76658 51.68776,17.85221 23.41577,0.12181 37.1306,-5.42629 72.65754,-29.39232 23.43363,-15.80804 42.93807,-26.55649 56.86396,-31.33643 5.66023,-1.94283 11.2611,-2.54702 23.61069,-2.54702 19.37519,0 25.886,1.87388 40.52116,11.66248 19.14425,12.80446 33.20401,32.24297 54.10837,74.80828 7.6888,15.65588 13.97965,28.861 13.97965,29.34471 0,1.11726 -7.96645,0.8628 -17.53937,-0.56023 z"
       id="path2935"
       transform="scale(0.26458333)" />
    <path
       style="fill:#23a7c0;fill-opacity:0.76862746;stroke:none;stroke-width:0.134918"
       d="m 597.68776,478.0974 c -4.82332,-0.1836 -95.286,-0.97385 -201.02816,-1.75612 -105.74216,-0.78227 -210.34226,-1.80014 -232.44467,-2.26194 l -40.18619,-0.83963 29.39273,-11.15925 c 16.166,-6.13759 35.07805,-13.55804 42.02676,-16.4899 l 12.63403,-5.33064 7.6037,3.12769 c 12.29743,5.05839 25.70965,3.97346 35.83658,-2.89886 2.71806,-1.84452 5.69209,-3.35368 6.60897,-3.35368 0.91686,0 10.7558,2.73163 21.8643,6.0703 60.21277,18.09698 105.14559,22.92183 238.76479,25.63838 69.1544,1.40595 121.55105,4.3329 154.48137,8.62956 8.1744,1.06657 -51.073,1.55597 -75.55421,0.62409 z"
       id="path3543"
       transform="scale(0.26458333)" />
  </g>
  <g
     inkscape:groupmode="layer"
     id="layer2"
     inkscape:label="Sun">
    <ellipse
       style="fill:#cdf5fc;fill-opacity:0.768627;stroke:none;stroke-width:0.1"
       id="path2664"
       cx="61.042068"
       cy="109.12862"
       rx="9.6382208"
       ry="8.9242783" />
  </g>
</svg>
