<?xml version="1.0" encoding="UTF-8" standalone="no"?>
<!-- Created with Inkscape (http://www.inkscape.org/) -->

<svg
   width="60mm"
   height="30mm"
   viewBox="0 0 60 30"
   version="1.1"
   id="svg2012"
   inkscape:version="1.1.1 (3bf5ae0d25, 2021-09-20)"
   sodipodi:docname="fitnesslogo2.svg"
   xmlns:inkscape="http://www.inkscape.org/namespaces/inkscape"
   xmlns:sodipodi="http://sodipodi.sourceforge.net/DTD/sodipodi-0.dtd"
   xmlns="http://www.w3.org/2000/svg"
   xmlns:svg="http://www.w3.org/2000/svg">
  <sodipodi:namedview
     id="namedview2014"
     pagecolor="#ffffff"
     bordercolor="#666666"
     borderopacity="1.0"
     inkscape:pageshadow="2"
     inkscape:pageopacity="0.0"
     inkscape:pagecheckerboard="0"
     inkscape:document-units="mm"
     showgrid="false"
     width="60mm"
     inkscape:zoom="2.9647587"
     inkscape:cx="63.917512"
     inkscape:cy="79.433109"
     inkscape:window-width="1920"
     inkscape:window-height="1017"
     inkscape:window-x="-8"
     inkscape:window-y="-8"
     inkscape:window-maximized="1"
     inkscape:current-layer="layer1" />
  <defs
     id="defs2009">
    <rect
       x="187.19905"
       y="205.41301"
       width="113.66861"
       height="60.375908"
       id="rect10552" />
  </defs>
  <g
     inkscape:label="Layer 1"
     inkscape:groupmode="layer"
     id="layer1">
    <ellipse
       style="fill:#41efff;stroke:#120834;stroke-width:1.19831"
       id="path2095"
       cx="15.572865"
       cy="15.528248"
       rx="10.386874"
       ry="10.253011" />
    <text
       xml:space="preserve"
       style="font-style:normal;font-weight:normal;font-size:10.5833px;line-height:1.25;font-family:sans-serif;fill:#000000;fill-opacity:1;stroke:none;stroke-width:0.264583"
       x="10.26292"
       y="15.974459"
       id="text3125"><tspan
         sodipodi:role="line"
         style="stroke-width:0.264583"
         x="10.26292"
         y="15.974459"
         id="tspan3127">     ential</tspan></text>
    <text
       xml:space="preserve"
       style="font-style:normal;font-weight:normal;font-size:10.5833px;line-height:1.25;font-family:sans-serif;fill:#000000;fill-opacity:1;stroke:none;stroke-width:0.264583"
       x="10.26292"
       y="22.935398"
       id="text4849"><tspan
         sodipodi:role="line"
         id="tspan4847"
         style="stroke-width:0.264583"
         x="10.26292"
         y="22.935398">     using</tspan></text>
    <path
       style="fill:#008080;stroke:#120834;stroke-width:0.337296"
       d="M 14.443702,25.168793 C 11.824397,24.837289 9.3306969,23.408552 7.7563517,21.337352 7.1735662,20.570642 6.3924719,18.973265 6.1594786,18.071665 5.5660525,15.775318 5.7876976,13.581005 6.8265376,11.467699 7.3928785,10.315594 7.9599544,9.5390681 8.8439503,8.7051511 12.85968,4.9169141 19.063196,5.1559491 22.830145,9.2440691 c 0.336308,0.36498 0.665579,0.7647069 0.731713,0.8882809 0.109121,0.203894 0.101324,0.237934 -0.08428,0.367936 -0.274574,0.192319 -0.537814,0.795838 -0.540222,1.238542 -0.0046,0.846507 0.578491,1.443969 1.623983,1.663996 l 0.510408,0.107417 0.08565,0.451235 c 0.04711,0.248179 0.104209,0.646992 0.126891,0.88625 l 0.04124,0.435017 -0.6373,-0.04324 C 24.29292,15.212683 23.837563,15.10854 23.48902,14.965232 l -0.561908,-0.231035 0.02645,0.55225 0.02645,0.55225 0.624699,0.14984 c 0.343585,0.08241 0.855616,0.153117 1.137846,0.157123 l 0.513146,0.0073 -8.9e-5,0.423903 -8.9e-5,0.423903 -0.513023,0.150773 c -0.661344,0.194363 -1.192494,0.65145 -1.509187,1.298746 -0.317679,0.649314 -0.401919,1.947238 -0.175991,2.711582 l 0.14174,0.479525 -0.778812,0.758709 c -1.442886,1.405636 -2.959248,2.214147 -4.940007,2.633972 -0.768083,0.162798 -2.283473,0.230039 -3.03648,0.134736 z M 20.1034,22.973315 c 0.921159,-0.31387 1.515059,-1.148519 1.66206,-2.33581 0.19747,-1.594911 -0.303971,-2.842792 -1.362797,-3.391446 -0.386317,-0.200178 -0.574086,-0.237413 -1.215464,-0.24103 -0.995337,-0.0056 -1.471151,0.176073 -1.999185,0.763373 -0.56065,0.623578 -0.724375,1.152278 -0.715729,2.311226 0.01208,1.619801 0.522387,2.482101 1.722738,2.911047 0.447326,0.159853 1.4141,0.151058 1.908377,-0.01736 z M 12.315505,21.10592 v -1.829477 h 1.517127 1.517127 v -0.490836 -0.490835 h -1.517127 -1.517127 v -1.070914 -1.070913 h 1.695612 c 1.070914,0 1.695613,-0.03288 1.695613,-0.08924 0,-0.04908 0.120478,-0.08924 0.267729,-0.08924 0.261778,0 0.267728,-0.0099 0.267728,-0.446214 v -0.44622 h -1.963341 -1.963341 v -1.383263 -1.383263 h 1.829477 1.829477 V 11.869291 11.423077 H 14.144982 12.315505 V 10.307542 9.1920071 h 1.918719 1.91872 v -0.490835 -0.490835 h -2.498798 -2.498798 v 7.3625299 7.362531 h 0.580079 0.580078 z m 8.626406,-5.249024 c 0.644254,-0.327903 0.867208,-0.672673 0.903771,-1.397567 0.05322,-1.055066 -0.431454,-1.515615 -1.969431,-1.871417 -0.430898,-0.09969 -0.902188,-0.242649 -1.047309,-0.317694 -0.456326,-0.235975 -0.469229,-0.888751 -0.02334,-1.180673 0.356597,-0.23346 1.69056,-0.209848 2.322624,0.04111 l 0.468524,0.186028 v -0.517982 -0.517982 l -0.468524,-0.118832 c -0.257689,-0.06536 -0.890197,-0.118363 -1.405574,-0.11779 -1.129495,0.0012 -1.65213,0.20057 -2.032299,0.775043 -0.298767,0.451469 -0.327365,1.295218 -0.05933,1.750468 0.246708,0.419025 0.57653,0.591164 1.737108,0.906622 1.214905,0.330225 1.446333,0.49697 1.407302,1.01397 -0.01992,0.263876 -0.08911,0.397345 -0.279057,0.538284 -0.21731,0.161246 -0.373033,0.186601 -1.115535,0.181631 -0.720604,-0.0048 -0.954982,-0.04428 -1.420735,-0.239166 L 17.402338,14.73756 v 0.532006 c 0,0.344229 0.03951,0.547165 0.111929,0.574956 0.479657,0.184063 1.381111,0.301495 2.119141,0.276062 0.702516,-0.02421 0.926757,-0.0694 1.308498,-0.263692 z"
       id="path6066" />
    <text
       xml:space="preserve"
       transform="scale(0.26458333)"
       id="text10550"
       style="font-style:normal;font-weight:normal;font-size:40px;line-height:1.25;font-family:sans-serif;white-space:pre;shape-inside:url(#rect10552);fill:#000000;fill-opacity:1;stroke:none" />
  </g>
</svg>
