<?xml version="1.0" encoding="UTF-8" standalone="no"?>
<!-- Generator: Adobe Illustrator 23.0.1, SVG Export Plug-In . SVG Version: 6.00 Build 0)  -->

<svg
   version="1.1"
   id="Layer_1"
   x="0px"
   y="0px"
   viewBox="0 0 1440 95"
   style="enable-background:new 0 0 1440 95;"
   xml:space="preserve"
   sodipodi:docname="hero-footer3.svg"
   inkscape:version="1.1.1 (3bf5ae0d25, 2021-09-20)"
   xmlns:inkscape="http://www.inkscape.org/namespaces/inkscape"
   xmlns:sodipodi="http://sodipodi.sourceforge.net/DTD/sodipodi-0.dtd"
   xmlns="http://www.w3.org/2000/svg"
   xmlns:svg="http://www.w3.org/2000/svg"
   xmlns:rdf="http://www.w3.org/1999/02/22-rdf-syntax-ns#"
   xmlns:cc="http://creativecommons.org/ns#"
   xmlns:dc="http://purl.org/dc/elements/1.1/"><defs
   id="defs14782" /><sodipodi:namedview
   id="namedview14780"
   pagecolor="#ffffff"
   bordercolor="#666666"
   borderopacity="1.0"
   inkscape:pageshadow="2"
   inkscape:pageopacity="0.0"
   inkscape:pagecheckerboard="0"
   showgrid="false"
   inkscape:zoom="0.51952707"
   inkscape:cx="786.29205"
   inkscape:cy="-16.361034"
   inkscape:window-width="1920"
   inkscape:window-height="1017"
   inkscape:window-x="-8"
   inkscape:window-y="-8"
   inkscape:window-maximized="1"
   inkscape:current-layer="Layer_1" />
<style
   type="text/css"
   id="style14711">
	.st0{fill-rule:evenodd;clip-rule:evenodd;fill:#94A294;}
	.st1{fill-rule:evenodd;clip-rule:evenodd;fill:#F7D3B0;}
	.st2{fill-rule:evenodd;clip-rule:evenodd;fill:#94A294;stroke:#F7D3B0;stroke-width:2;}
	.st3{fill:#F7D3B0;}
	.st4{fill-rule:evenodd;clip-rule:evenodd;fill:#829182;}
	.st5{fill-rule:evenodd;clip-rule:evenodd;fill:#575552;}
	.st6{fill-rule:evenodd;clip-rule:evenodd;fill:#F4C9A1;}
	.st7{filter:url(#Adobe_OpacityMaskFilter);}
	.st8{fill-rule:evenodd;clip-rule:evenodd;fill:#FFFFFF;}
	.st9{mask:url(#mask-2_1_);fill-rule:evenodd;clip-rule:evenodd;fill:#575552;}
	.st10{filter:url(#Adobe_OpacityMaskFilter_1_);}
	.st11{mask:url(#mask-4_1_);fill-rule:evenodd;clip-rule:evenodd;fill:#F7D3B0;}
</style>
<title
   id="title14713">Group 4</title>
<desc
   id="desc14715">Created with Sketch.</desc>
<g
   id="Portfolio">
	<g
   id="Group-4"
   transform="translate(-1.000000, 0.000000)">
		<rect
   id="Rectangle"
   x="1"
   class="st0"
   width="1440"
   height="95" />
		<g
   id="Group-3-Copy"
   transform="translate(0.000000, 5.000000)">
			<rect
   x="1"
   y="49"
   class="st1"
   width="1440"
   height="41"
   id="rect14718" />
			<path
   id="Path-8"
   class="st2"
   d="M427.2,24.8c80,9.4,131.2,14.1,153.7,14.1c33.7,0,110.1,8.5,116.2,8.5     c6.1,0,116.2,7.7,116.2,7.7s-24.3-9.4-48.7-16.2s-68.2-8.3-73.4-14.1C686.1,19,555.6-5.9,500.4,7.7     C463.6,16.8,439.2,22.5,427.2,24.8z" />
			<path
   id="Path-10"
   class="st2"
   d="M40.4,32.3c35.6-11.7,69.4-20,101.5-24.9C157,5.2,299.4-1.2,353.4,1     c116.8,4.8,182,24.1,201.5,31.3C583.5,42.9,89.1,45,89.1,45S72.9,40.8,40.4,32.3z" />
			<path
   id="Path-4"
   class="st3"
   d="M3,25v33.7c54.4-1.1,90.3-1.1,107.8,0c4.9,0.3,22.5,1.8,51.4,4.6s40.9,4.7,109.6,5.6     c84.4,1.1,95-3.6,207.7-5.6s175.3-4.6,242.6-4.6s9.7-7.1-12.3-13.7c-22-6.6-67.1-29.6-115.6-24.7C545.9,25.2,388,4,308.6,15.4     C255.6,23,153.8,26.2,3,25z M3,23c150.7,1.3,252.5-1.9,305.3-9.5c29.5-4.2,70.1-4.4,127.2-1.5c13.5,0.7,27,1.5,46,2.6     c53.1,3.3,51,3.2,66.5,3.8c21.4,0.9,36.3,1,46.2,0c26.4-2.7,52.5,2.2,83.5,13c4.3,1.5,28,10.3,32.9,11.8c1.4,0.4,2.9,0.8,4.7,1.3     c3.5,0.9,7.5,1.8,13.3,3.1c22.6,4.9,24.1,5.2,26.2,6.9c1.8,1.4,1.3,3.7-0.7,4.6c-1,0.5-2.8,0.8-5.3,1c-5.1,0.5-13.7,0.8-26.5,0.8     c-5.7,0-11.4,0-17.2,0.1c-21.6,0.1-43.6,0.5-74,1.2c-7.8,0.2-68.2,1.6-88.8,2.1c-21.2,0.5-41.6,0.9-62.6,1.2     c-32.1,0.6-57.4,1.3-83,2.5c-8.2,0.4-37.3,1.8-44.3,2c-26.4,1.1-48.6,1.5-80.4,1.1c-46.7-0.6-68-1.6-91.6-3.8     c-3-0.3-14.9-1.5-18.2-1.8c-25.5-2.4-45.4-4.2-51.3-4.6c-17.4-1.1-53.3-1.1-107.7,0l-2,0V22.9L3,23z" />
			<path
   id="Path-4-Copy"
   class="st0"
   d="M1,25c152.1,1.3,254.6-1.9,307.6-9.5C388,4,545.9,25.2,594.3,20.3     c48.4-4.9,93.6,18.1,115.6,24.7c22,6.6,79.6,13.7,12.3,13.7s-130,2.6-242.6,4.6s-123.2,6.7-207.7,5.6     c-68.7-0.9-80.6-2.8-109.6-5.6s-46.5-4.2-51.4-4.6c-17.5-1.1-54.1-1.1-109.8,0V25z" />
			<g
   id="Group"
   transform="translate(217.700416, 1.000000)">
				<g
   id="Group-8">
					<g
   id="Group-21"
   transform="translate(0.000000, 0.032053)">
						<path
   id="Fill-1"
   class="st4"
   d="M3.6,9.3c0,0,50.3,18.8,113.9-7l-1.7,13.6c0,0-92.6,18.7-106.5,7.4L3.6,9.3z" />
						<path
   id="Fill-3"
   class="st5"
   d="M9.5,23c13.6,10.7,101.1-6.5,106-7.5l1.6-12.9c-14.4,5.8-29.3,9.8-44.2,11.8        c-12.1,1.7-24.3,2.1-36.2,1.2c-17.8-1.3-29.8-5-32.6-6L9.5,23z M29.5,27.2c-10.6,0-17.4-1.2-20.4-3.7l-0.1,0l0-0.1L3.1,8.8        L3.7,9c0.1,0,12.8,4.7,33,6.2c11.9,0.9,24,0.4,36.1-1.2c15.1-2.1,30.1-6.1,44.5-12l0.5-0.2l-1.8,14.3l-0.2,0        c-0.2,0-23.4,4.7-48.1,7.9C52,26.1,39.2,27.2,29.5,27.2z" />
						<path
   id="Fill-5"
   class="st4"
   d="M1.2,11c0,0,0.3,14.3,2.8,16.4c2.8,2.3,39.6,9.4,64.3,7.3c23.5-2,43.5-12.6,48.7-15.2        c0.7-0.4,1.2-1,1.4-1.8c0.7-3.3,2.4-12.4,1.6-15.6c0,0-16.7,15.7-58.6,18.2C19.6,22.8,1.2,11,1.2,11" />
						<path
   id="Fill-7"
   class="st5"
   d="M1.5,11.5c0.1,4.3,0.8,14,2.7,15.6C7,29.5,41.6,36,65.6,34.6c0.9-0.1,1.8-0.1,2.7-0.2        c22.5-1.9,41.6-11.6,47.9-14.8l0.7-0.4c0.6-0.3,1.1-0.9,1.2-1.6c0.5-2.7,2.2-11.4,1.7-15c-1.3,1-5.5,4.4-13.3,7.9        c-8.6,3.9-23.4,8.8-45.1,10.1c-21.7,1.3-36.9-1.3-45.9-3.7C7.5,14.7,2.9,12.3,1.5,11.5 M65.5,35.2C40.9,36.6,6.7,30,3.8,27.6        c-2.6-2.2-2.9-16-2.9-16.6l0-0.5l0.5,0.3c0,0,4.7,3,14.4,5.5c8.8,2.4,23.8,4.9,45,3.7c0.2,0,0.5,0,0.7,0        c21.6-1.3,36.3-6.2,44.9-10c9.3-4.2,13.5-8.1,13.5-8.1l0.4-0.3l0.1,0.5c0.8,3.2-0.8,12-1.6,15.7c-0.2,0.9-0.7,1.6-1.5,2        l-0.7,0.4c-6.3,3.2-25.5,13-48.1,14.9C67.4,35.1,66.5,35.1,65.5,35.2" />
						<polygon
   id="Fill-9"
   class="st6"
   points="45.2,15.7 43.5,20.8 50.6,20.9 49.5,15.5       " />
						<path
   id="Fill-11"
   class="st5"
   d="M43.9,20.5l6.3,0.1l-0.9-4.8L45.4,16L43.9,20.5z M50.9,21.2l-7.8-0.1l1.8-5.6l4.8-0.3        L50.9,21.2z" />
						<polygon
   id="Fill-13"
   class="st6"
   points="81.2,12.9 83.4,17.8 76.4,18.7 76.8,13.2       " />
						<path
   id="Fill-15"
   class="st5"
   d="M77.1,13.5l-0.4,4.9l6.2-0.8L81,13.3L77.1,13.5z M76.1,19l0.5-6.1l4.8-0.3l2.4,5.4L76.1,19z        " />
						<path
   id="Fill-17"
   class="st6"
   d="M65.1,18.6c-36.5,3.4-61.4-8-61.4-8s20.8,8.2,58.5,5.8c29.3-1.9,50.5-11.7,54.6-13.7        c0.1-0.1,0.2,0.1,0.1,0.2C113.9,5.2,99.7,15.4,65.1,18.6 M115.1,1.2c-5.6,2.5-28.2,12.1-58.4,13.3C26.4,15.7,9.3,9.9,4.9,8.9        c-0.8-0.2-2.1-0.5-3.3,0c-1.4,0.6-1.5,2.6-0.2,3.3c6.1,3.3,27.2,12.1,60,9.5c39.6-3.1,54.1-14.9,57.9-18.2        C121,2.1,120.7-1.3,115.1,1.2" />
						<path
   id="Fill-19"
   class="st5"
   d="M12.9,13.5c8.3,2.4,21.9,5.4,38.8,5.4c4.3,0,8.7-0.2,13.4-0.6c14.7-1.4,27.4-4.1,37.7-8.2        c6.3-2.5,10.3-4.9,12.5-6.4c-6.6,3-26.5,11.2-53,13c-19.5,1.3-34.4-0.4-43.4-2C16.6,14.3,14.6,13.9,12.9,13.5 M51.7,19.5        c-28.8,0-47.9-8.6-48.1-8.7l0.2-0.5C4,10.4,25,18.5,62.2,16.1c29.3-1.9,50.5-11.8,54.5-13.7c0.2-0.1,0.4,0,0.5,0.1        c0.1,0.2,0.1,0.4-0.1,0.5c-1.5,1.2-5.8,4.4-14.1,7.7c-10.4,4.1-23.1,6.8-37.9,8.2l0-0.3l0,0.3C60.5,19.3,56,19.5,51.7,19.5         M3,8.9C2.6,8.9,2.2,9,1.8,9.1c-0.6,0.2-0.9,0.7-0.9,1.3c0,0.6,0.3,1.2,0.8,1.5c3.8,2.1,24.8,12.2,59.9,9.5        c26.4-2.1,46.4-8.4,57.7-18.2c0.7-0.6,0.9-1.5,0.6-2.1c-0.5-0.8-2.2-0.7-4.6,0.3c-8,3.6-29.8,12.2-58.6,13.3        c-26.8,1.1-43.5-3.4-49.8-5.1C6,9.5,5.4,9.3,4.9,9.2l-0.2,0C4.2,9,3.6,8.9,3,8.9 M49.7,22.4c-28.1,0-44.9-8.2-48.3-10        c-0.7-0.4-1.2-1.2-1.1-2c0-0.8,0.5-1.5,1.3-1.8c1.2-0.5,2.5-0.2,3.3,0l0.2,0c0.5,0.1,1.2,0.3,2,0.5c6.3,1.7,22.9,6.1,49.6,5        C85.3,13.1,107,4.6,115,0.9c1.3-0.6,4.3-1.7,5.3-0.1c0.5,0.8,0.2,2-0.7,2.8c-11.4,9.9-31.5,16.2-58,18.3        C57.4,22.3,53.4,22.4,49.7,22.4" />
					</g>
					<g
   id="Group-24"
   transform="translate(0.618067, 0.342514)">
						<g
   id="Clip-23">
						</g>
						<defs
   id="defs14739">
							<filter
   id="Adobe_OpacityMaskFilter"
   filterUnits="userSpaceOnUse"
   x="-24"
   y="-10.3"
   width="155"
   height="51.4">
								<feColorMatrix
   type="matrix"
   values="1 0 0 0 0  0 1 0 0 0  0 0 1 0 0  0 0 0 1 0"
   id="feColorMatrix14736" />
							</filter>
						</defs>
						<mask
   maskUnits="userSpaceOnUse"
   x="-24"
   y="-10.3"
   width="155"
   height="51.4"
   id="mask-2_1_">
							<g
   class="st7"
   id="g14742">
								<path
   id="path-1_1_"
   class="st8"
   d="M56.2,14.2C26,15.4,8.9,9.7,4.5,8.6c-0.8-0.2-2.1-0.5-3.3,0c-1.4,0.6-1.5,2.6-0.2,3.3          c6.1,3.3,27.2,12.1,60,9.5c39.6-3.1,54-15,57.9-18.3c1.2-1,1.3-3.1-1-3.1c-0.8,0-1.9,0.3-3.3,0.9          C109.1,3.4,86.5,13.1,56.2,14.2z M61.8,16.1c29.3-1.9,50.5-11.8,54.6-13.8c0.1-0.1,0.2,0.1,0.1,0.2          c-3,2.5-17.2,12.7-51.8,15.9c-36.5,3.4-61.4-8-61.4-8s15.8,6.3,44.6,6.3C52.3,16.6,56.9,16.5,61.8,16.1z" />
							</g>
						</mask>
						<path
   id="Fill-22"
   class="st9"
   d="M119.5-9.2L119-9.6L79.6,34.8l0.4,0.4L119.5-9.2z M131-9.9l-0.4-0.4L91.1,34.1l0.4,0.4        L131-9.9z M125.3-9l-0.4-0.4L85.4,35l0.4,0.4L125.3-9z M113.7-8.4l-0.4-0.4L73.9,35.6l0.4,0.4L113.7-8.4z M108-8.1l-0.4-0.4        L68.1,35.9l0.4,0.4L108-8.1z M102.2-7.8l-0.4-0.4L62.4,36.2l0.4,0.4L102.2-7.8z M96.5-7.5L96-7.9L56.6,36.5l0.4,0.4L96.5-7.5z         M90.7-7.2l-0.4-0.4L50.8,36.8l0.4,0.4L90.7-7.2z M85-6.9l-0.4-0.4L45.1,37.1l0.4,0.4L85-6.9z M79.2-6.6L78.8-7L39.3,37.4        l0.4,0.4L79.2-6.6z M73.5-6.3L73-6.7L33.6,37.7l0.4,0.4L73.5-6.3z M67.7-6l-0.4-0.4L27.8,38l0.4,0.4L67.7-6z M61.9-5.7        l-0.4-0.4L22.1,38.3l0.4,0.4L61.9-5.7z M56.2-5.4l-0.4-0.4L16.3,38.6l0.4,0.4L56.2-5.4z M50.4-5.1L50-5.5L10.6,38.9l0.4,0.4        L50.4-5.1z M44.7-4.8l-0.4-0.4L4.8,39.2l0.4,0.4L44.7-4.8z M33.1-4.4l-0.4-0.4L-6.7,39.6l0.4,0.4L33.1-4.4z M38.9-4.5        l-0.4-0.4L-1,39.5l0.4,0.4L38.9-4.5z M27.4-3.9L27-4.3l-39.4,44.4l0.4,0.4L27.4-3.9z M21.6-3.6L21.2-4l-39.4,44.4l0.4,0.4        L21.6-3.6z M-23.5,41.1l-0.4-0.4L15.5-3.7l0.4,0.4L-23.5,41.1z"
   mask="url(#mask-2_1_)" />
					</g>
					<g
   id="Group-44"
   transform="translate(11.125213, 12.245416)">
						<path
   id="Fill-25"
   class="st6"
   d="M103.3,0.8c0.1-0.2,0.4-0.1,0.4,0.1c0,1-0.1,3-1.3,4.3c-1.7,1.8-16.5,8.1-19.6,8.8        C79.7,14.8,98.6,7.2,103.3,0.8" />
						<path
   id="Fill-27"
   class="st6"
   d="M25.1,31.3c-0.5,0-0.9,0.5-0.7,0.9c0.4,1.2,0.3,2.2,1,2.1c1-0.1,2.2-1.2,4.8-1.4        c2.6-0.2,49.1-4.7,50.1-4.3c0.5,0.2,5.9,2,9,2.1c4.2,0.1,4.2-0.3,8.3-0.6c5.3-0.4,8.1-1.3,9.4-1.8c0.6-0.2,0.8-0.8,0.6-1.4        c-0.9-1.9-3-5.8-5.8-6.9c0,0-13,0.6-16.4,1.9c-3.4,1.4-5.8,4.7-5.8,4.7L30,31.5L25.1,31.3z" />
						<g
   id="Group-31"
   transform="translate(23.970993, 19.779992)">
							<g
   id="Clip-30">
							</g>
							<defs
   id="defs14753">
								<filter
   id="Adobe_OpacityMaskFilter_1_"
   filterUnits="userSpaceOnUse"
   x="0.1"
   y="0"
   width="84"
   height="14.8">
									<feColorMatrix
   type="matrix"
   values="1 0 0 0 0  0 1 0 0 0  0 0 1 0 0  0 0 0 1 0"
   id="feColorMatrix14750" />
								</filter>
							</defs>
							<mask
   maskUnits="userSpaceOnUse"
   x="0.1"
   y="0"
   width="84"
   height="14.8"
   id="mask-4_1_">
								<g
   class="st10"
   id="g14756">
									<polygon
   id="path-3_1_"
   class="st8"
   points="0.1,0 84.2,0 84.2,14.9 0.1,14.9          " />
								</g>
							</mask>
							<path
   id="Fill-29"
   class="st11"
   d="M1.1,11.8c-0.1,0-0.2,0.1-0.3,0.2c-0.1,0.1-0.1,0.2-0.1,0.4c0.1,0.4,0.2,0.7,0.3,1         c0.2,0.7,0.3,0.9,0.5,0.9c0.3,0,0.7-0.2,1.2-0.4c0.8-0.4,1.9-0.9,3.6-1c0.7,0,5-0.4,10.9-1c24.4-2.3,38.6-3.6,39.3-3.3         c0.1,0,5.7,2,8.9,2.1c2.6,0.1,3.5-0.1,4.9-0.2c0.9-0.1,1.8-0.2,3.4-0.4c5.6-0.4,8.4-1.4,9.4-1.7c0.2-0.1,0.3-0.2,0.4-0.4         c0.1-0.2,0.1-0.4,0-0.6c-0.8-1.7-2.8-5.7-5.6-6.7c-1,0-13,0.6-16.3,1.9c-3.3,1.3-5.7,4.5-5.7,4.6l-0.1,0.1l-0.1,0L6.1,12         L1.1,11.8C1.1,11.8,1.1,11.8,1.1,11.8 M1.5,14.9c-0.7,0-0.8-0.7-1-1.4c-0.1-0.3-0.1-0.6-0.3-1c-0.1-0.3-0.1-0.7,0.1-0.9         c0.2-0.3,0.5-0.4,0.8-0.4l4.9,0.1l49.5-4.7C56,6.1,58.3,3.3,61.4,2c3.4-1.4,16-1.9,16.5-2L78,0l0.1,0c2.9,1,5,4.9,6,7         c0.2,0.3,0.2,0.7,0,1.1c-0.1,0.3-0.4,0.6-0.8,0.7c-1,0.3-3.9,1.4-9.5,1.8c-1.6,0.1-2.5,0.2-3.4,0.3c-1.3,0.2-2.4,0.3-5,0.2         c-3.3-0.1-9.1-2.1-9.1-2.1c-1.1-0.2-25.8,2.1-39.1,3.4c-5.9,0.6-10.2,1-10.9,1c-1.6,0.1-2.6,0.6-3.4,0.9         C2.4,14.6,2,14.9,1.5,14.9C1.5,14.9,1.5,14.9,1.5,14.9"
   mask="url(#mask-4_1_)" />
						</g>
						<path
   id="Fill-32"
   class="st0"
   d="M10.7,25.9c0.1,0,0.2-0.1,0.3-0.2c1.1-2.5,3.4-4.1,3.4-4.1c0.1-0.1,0.2-0.3,0.1-0.4        c-0.1-0.1-0.3-0.2-0.4-0.1c-0.1,0.1-2.4,1.7-3.6,4.4c-0.1,0.1,0,0.3,0.1,0.4C10.7,25.9,10.7,25.9,10.7,25.9" />
						<path
   id="Fill-34"
   class="st0"
   d="M10.9,26c0.1,0,0.3-0.1,0.3-0.2c0.5-3.8-1.1-5-1.1-5.1c-0.1-0.1-0.3-0.1-0.4,0        c-0.1,0.1-0.1,0.3,0,0.4c0,0,1.3,1.2,0.9,4.6C10.6,25.9,10.7,26,10.9,26C10.9,26,10.9,26,10.9,26" />
						<path
   id="Fill-36"
   class="st0"
   d="M10.9,26.2C10.9,26.2,11,26.2,10.9,26.2c0.2-0.1,0.3-0.2,0.3-0.4c-0.5-1.4-1.4-2.2-1.4-2.2        c-0.1-0.1-0.3-0.1-0.4,0c-0.1,0.1-0.1,0.3,0,0.4c0,0,0.8,0.7,1.3,2C10.7,26.1,10.8,26.2,10.9,26.2" />
						<path
   id="Fill-38"
   class="st0"
   d="M2.6,32L2.6,32c-0.2,0-0.3-0.1-0.3-0.3c-0.3-2-2.2-3.2-2.2-3.2C0,28.4,0,28.2,0,28.1        c0.1-0.1,0.3-0.2,0.4-0.1c0.1,0,1.5,1,2.1,2.5c0.3-0.8,0.7-1.9,1.5-2.1c0.2-0.1,0.3,0,0.4,0.2c0.1,0.2,0,0.3-0.2,0.4        c-0.7,0.2-1.2,1.8-1.3,2.8C2.9,31.9,2.8,32,2.6,32" />
						<path
   id="Fill-40"
   class="st0"
   d="M29,29.4c0.1,0,0.3-0.1,0.3-0.2c0.1-0.3,0.7-1.1,1.1-1.6c0.1-0.1,0.1-0.3,0-0.4        c-0.1-0.1-0.3-0.1-0.4,0c-0.1,0.1-0.5,0.5-0.8,1c-0.2-1.3-0.7-3.4-2.2-4c-0.2-0.1-0.3,0-0.4,0.2c-0.1,0.2,0,0.3,0.2,0.4        c1.4,0.5,1.9,3.4,1.9,4.4C28.7,29.3,28.8,29.4,29,29.4C29,29.4,29,29.4,29,29.4" />
						<path
   id="Fill-42"
   class="st0"
   d="M29,29.4c0,0,0.1,0,0.1,0c0.2-0.1,0.2-0.2,0.2-0.4c-0.9-2-2.2-2.5-2.3-2.5        c-0.2-0.1-0.3,0-0.4,0.2c-0.1,0.2,0,0.3,0.2,0.4c0.1,0,1.2,0.5,2,2.2C28.8,29.3,28.9,29.4,29,29.4" />
					</g>
				</g>
				<path
   id="Path-2"
   class="st0"
   d="M98.3,36.3c3.6-0.7,6.6-1.1,8.9-1.4c2.3-0.2,3.9-0.2,5,0c1.2,0.9,1.8,1.6,1.8,2.1      c0,0.3-0.2-0.5-3.7-0.7C108.6,36.2,104.6,36.2,98.3,36.3z" />
			</g>
			<path
   id="Path-6"
   class="st0"
   d="M0,0" />
			<path
   id="Path-7"
   class="st2"
   d="M833.9,56c36.1-12.3,70.3-20.4,102.6-24.3c24.7-3,62.1,20.6,177.3,24.3     c24.9,0.8,69.8-18,99.6-18.8c103.3-2.7,202.2,6.1,206.5,6.1C1427.6,43.4,1232.2,47.6,833.9,56z" />
			<path
   id="Path-5"
   class="st3"
   d="M736.6,74.3h74.1c8.6,0,83.4-0.9,99.9,0c16.4,0.9,104.1,1.1,123.5,0c19.5-1.1,87.3-1.7,121-1.7     c22.5,0,117.1-1.6,283.8-4.7V41h-107.7c-51.9,4.7-81.9,7-89.8,7h-65.9c-8.4,0-36.5-1.6-84.2-4.9l-70.2,2     c-69.2-0.9-111-0.9-125.6,0c-21.9,1.3-25.4-1.1-46.7,0c-21.3,1.1-20.9,1.1-33.6,2.9c-12.7,1.8-12.1,2.2-42.5,10     C742.4,65.7,727.6,74.3,736.6,74.3z M1441,23.5v46.4l-2,0c-166.8,3.1-261.4,4.7-283.9,4.7c-43.6,0-104.1,0.7-120.9,1.7     c-18.4,1-105.9,0.9-123.7,0c-6.8-0.4-23.8-0.4-48.6-0.3c-7.7,0-15.9,0.1-25,0.2c1.1,0-24.1,0.2-26.1,0.2h-74.1     c-1.5,0-2.5-0.2-3.3-0.7c-1.4-0.9-1.6-2.5-0.8-3.9c0.9-1.4,3.1-2.8,6.6-4.5c7.2-3.5,19.1-7.6,33.3-11.2     c2.1-0.5,29.5-7.7,33.5-8.5c1.3-0.3,2.6-0.5,4.1-0.7c1.4-0.2,3.1-0.5,5.1-0.8c8.3-1.2,10.1-1.4,13.7-1.7     c3.6-0.3,6.6-0.5,20.1-1.2c8.7-0.5,13.6-0.4,22.8,0.1c0.1,0,0.1,0,0.3,0c9.4,0.5,14.5,0.5,23.7-0.1c14.7-0.9,56.5-0.9,125.7,0     l70.2-2l0.2,0c47.7,3.2,75.8,4.8,84.1,4.8h65.9c7.8,0,68.2-22.5,89.6-22.5" />
			<path
   id="Path-5-Copy"
   class="st0"
   d="M736.6,74c-9.1,0,5.8-8.5,36.2-16.1s29.8-8.1,42.5-9.9c12.7-1.8,12.3-1.7,33.6-2.8     c21.3-1.1,24.9,1.3,46.8,0c14.6-0.9,56.5-0.9,125.7,0l70.2-2c47.8,3.2,75.9,4.8,84.3,4.8c12.6,0,54,0,65.9,0     c7.9,0,68.3-22.5,89.8-22.5c27.3,0,109.4,0,109.4,0v42.2c-167.9,3.1-263.1,4.6-285.6,4.6c-33.7,0-101.6,0.6-121.1,1.7     c-19.5,1.1-107.2,0.9-123.6,0c-16.4-0.9-91.3,0-99.9,0S745.7,74,736.6,74z" />
			<path
   id="Path-9"
   class="st0"
   d="M0,0" />
		</g>
	</g>
</g>
<path
   style="fill:#7aaaaa;fill-opacity:1;stroke:none;stroke-width:0.986768"
   d="m 259.79206,39.978803 c -18.33812,-1.545082 -37.68868,-5.235378 -39.15042,-7.466279 -0.73701,-1.12482 -1.71797,-6.153112 -2.01789,-10.3435 l -0.25073,-3.503077 1.99496,1.002841 c 7.08308,3.560562 18.72834,6.600338 31.0876,8.114828 6.82537,0.836374 23.16361,0.840191 30.62382,0.0072 8.5184,-0.9512 14.44043,-1.877338 20.24175,-3.16558 14.30662,-3.176927 24.31144,-7.374484 32.80091,-13.761734 l 1.49258,-1.1229731 -0.23646,2.3603831 c -0.32807,3.274807 -1.56692,11.016911 -1.90527,11.906847 -0.31576,0.830502 -3.94463,2.789093 -10.54096,5.689219 -12.48467,5.488975 -24.50139,8.894544 -36.23819,10.269998 -5.41728,0.63486 -20.43183,0.64125 -27.9017,0.01187 z m 55.55992,-9.224989 c 8.95544,-3.529987 14.98613,-6.639309 15.63364,-8.060438 0.53106,-1.165555 0.91403,-3.97882 0.54163,-3.97882 -0.16943,0 -0.99069,0.701805 -1.82502,1.559567 -2.18928,2.250756 -7.14758,5.447939 -13.68144,8.821993 -3.13468,1.618739 -5.69943,3.007481 -5.69943,3.086094 0,0.398721 1.4135,-0.0026 5.03062,-1.428396 z"
   id="path16693" /><path
   style="fill:#7aaaaa;fill-opacity:1;stroke:none;stroke-width:0.986768"
   d="m 74.007562,28.048411 c 0.187145,-0.06941 3.862003,-1.047235 8.166351,-2.172951 C 107.72025,19.194326 135.24777,13.847569 149.54631,12.789506 189.87337,9.8053872 282.90755,6.5547539 318.99811,6.8688259 l 12.24953,0.1065994 -3.40265,1.4191976 c -13.15946,5.4886291 -29.01702,9.3202291 -45.76559,11.0581551 -5.73954,0.595566 -27.66854,0.601339 -33.34594,0.0088 -8.64595,-0.902392 -14.49495,-1.943451 -24.25306,-4.316783 -4.51706,-1.098622 -6.20646,-1.041743 -7.16047,0.24108 -0.60873,0.818535 -0.64088,1.072263 -0.28028,2.21172 0.31455,0.993907 1.09675,7.537944 0.93315,7.806856 -0.0605,0.0994 -30.08448,1.127344 -42.90664,1.469015 -23.7471,0.632786 -102.051482,1.5432 -101.058598,1.174967 z"
   id="path16843" /><path
   style="fill:#7aaaaa;fill-opacity:1;stroke:none;stroke-width:0.986768"
   d="m 452.04159,17.84432 c -14.38599,-0.845268 -29.62955,-1.604279 -45.42533,-2.261829 -11.14126,-0.46379 -59.97303,-0.5954 -65.71982,-0.177126 l -3.62152,0.263589 0.0487,-4.431084 0.0487,-4.431083 3.16061,-7.485e-4 c 13.76632,-0.00325 53.21285,2.5220862 77.31198,4.9494575 17.2143,1.733902 43.89203,5.174655 51.0397,6.582834 1.43895,0.283491 1.37746,0.301182 -1.0208,0.293684 -1.40359,-0.0044 -8.52362,-0.358851 -15.8223,-0.787694 z"
   id="path16882" /><path
   style="fill:#7aaaaa;fill-opacity:1;stroke:none;stroke-width:0.986768"
   d="M 253.1569,73.468671 C 218.41575,72.799224 199.69007,71.85254 176.08696,69.572358 114.53829,63.626448 108.02514,63.150703 82.854442,62.762325 68.954278,62.54785 12.87476,63.067536 4.5085066,63.488355 L 0.34026465,63.698016 V 46.990784 30.283554 l 53.16635135,-0.0039 c 51.479964,-0.0038 82.719214,-0.282043 114.243854,-1.01768 17.99268,-0.419865 43.94824,-1.262007 47.89225,-1.55389 2.79648,-0.206958 2.80719,-0.204626 2.80719,0.611699 0,1.45417 1.04927,4.405028 1.85167,5.207428 1.0443,1.0443 4.14448,1.954112 12.09918,3.550753 13.2081,2.651091 25.77029,4.046852 38.9603,4.328807 15.88005,0.339459 26.4757,-1.168227 40.04249,-5.697764 8.39585,-2.803117 22.18557,-8.920145 23.51545,-10.4313 0.34548,-0.392575 0.86462,-2.032271 1.19981,-3.78958 0.32496,-1.703676 0.73995,-3.246582 0.92221,-3.42868 0.19282,-0.192646 6.80512,-0.497821 15.81342,-0.729831 29.01849,-0.747375 68.34338,0.582097 127.25898,4.302293 55.97626,3.534592 73.28995,4.350394 92.55199,4.360945 11.34694,0.0062 16.25563,-0.127454 21.03186,-0.57272 15.79835,-1.472809 32.79259,-0.246153 50.20557,3.623872 l 4.81172,1.069404 0.0882,17.062768 0.0882,17.062768 -4.8519,0.200008 c -2.66856,0.110004 -8.98612,0.284328 -14.03905,0.387391 -5.05293,0.103063 -21.81947,0.485476 -37.25898,0.849811 -45.53037,1.074396 -72.34908,1.659426 -100.5482,2.19338 -50.97212,0.965157 -72.95574,1.654588 -114.32893,3.585467 -30.44518,1.420871 -36.56187,1.668845 -50.35916,2.041595 -13.88391,0.375087 -54.21915,0.359932 -74.34783,-0.02794 z m 1.87146,-21.033633 c 1.99399,-0.757021 1.39451,-0.683799 19.73535,-2.4104 32.65831,-3.07444 32.51711,-3.067941 37.25897,-1.715085 3.694,1.053898 6.61671,1.178715 12.75993,0.544925 7.83561,-0.808392 11.39886,-1.779958 11.39886,-3.108038 0,-0.935708 -1.72211,-3.931653 -3.15108,-5.4819 -1.82553,-1.98047 -2.8021,-2.459987 -4.67983,-2.297901 -0.8395,0.07247 -3.58274,0.295535 -6.09609,0.495709 -7.93499,0.631977 -10.07587,1.319136 -13.25522,4.254542 l -1.9104,1.763819 -23.81853,2.263284 c -13.10019,1.244806 -25.35737,2.261221 -27.23818,2.2587 -3.40346,-0.0046 -4.2363,0.244195 -4.2363,1.265325 0,0.690615 0.94972,2.813291 1.25863,2.813097 0.14991,-9.5e-5 1.03816,-0.290831 1.97389,-0.646077 z"
   id="path16921" /><path
   style="fill:#7aaaaa;fill-opacity:1;stroke:none;stroke-width:0.986768"
   d="M 21.351607,27.986814 0,27.896588 V 13.948294 0 h 324.44234 324.44235 v 9.1185176 9.1185174 l -5.5293,-0.952125 C 603.19535,10.369502 559.56906,6.642212 531.92246,7.7644348 513.9407,8.4943443 508.35563,9.3084298 489.30625,13.976216 l -12.94237,3.171351 -3.65455,-0.596221 C 435.69929,10.513301 392.21415,6.3393744 349.96219,4.7694529 332.75185,4.1299819 298.34897,4.3934322 261.49338,5.4469293 217.49406,6.7046267 164.65483,9.1211723 146.30124,10.715119 131.10397,12.034949 98.842209,18.747763 72.598253,26.05075 l -7.87434,2.191216 -11.010348,-0.08246 C 47.657872,28.114148 33.094991,28.036438 21.351607,27.986814 Z"
   id="path16960" /><path
   style="fill:#7aaaaa;fill-opacity:1;stroke:none;stroke-width:0.174438"
   d="m 258.49832,24.56476 c -6.85247,-0.486869 -13.69301,-1.463743 -20.36106,-2.907693 -1.68788,-0.365507 -6.60249,-1.581408 -6.5128,-1.611304 0.0347,-0.01156 0.69543,0.101195 1.46836,0.250562 8.44228,1.631468 16.68988,2.511089 26.73192,2.851006 l 1.20611,0.04083 -0.23101,0.736848 -0.231,0.736848 -0.46383,-0.0079 c -0.2551,-0.0044 -0.97811,-0.04449 -1.60669,-0.08915 z"
   id="path16999" /><path
   style="fill:#7aaaaa;fill-opacity:1;stroke:none;stroke-width:0.174438"
   d="m 267.0182,24.195684 c -0.0751,-0.388725 -0.15031,-0.763847 -0.16715,-0.833605 -0.0305,-0.126314 -0.0229,-0.126999 1.8535,-0.167753 9.05141,-0.196589 16.34079,-0.782253 23.32788,-1.874275 0.51278,-0.08014 0.96034,-0.145993 0.99457,-0.146332 0.0891,-8.82e-4 -0.0572,1.684894 -0.15129,1.743036 -0.12749,0.07879 -4.81967,0.712355 -7.5501,1.019455 -5.39035,0.606269 -11.50534,0.964554 -16.48399,0.965818 l -1.68687,4.28e-4 z"
   id="path17038" /><path
   style="fill:#7aaaaa;fill-opacity:1;stroke:none;stroke-width:0.246692"
   d="m 299.19675,20.992787 c -0.19108,-0.433013 -0.33453,-0.800183 -0.31878,-0.815932 0.0157,-0.01575 0.99877,-0.233836 2.1845,-0.484636 10.05894,-2.127631 19.8903,-5.175948 28.40947,-8.808658 0.87143,-0.371592 1.61789,-0.675258 1.65879,-0.674813 0.11356,0.0012 -0.88611,0.623239 -2.35001,1.462202 -5.79598,3.321679 -13.20284,6.196175 -21.52174,8.352282 -1.70216,0.441168 -5.12596,1.22913 -6.50756,1.497665 -0.51465,0.100029 -0.99682,0.199268 -1.07149,0.220529 -0.10218,0.0291 -0.22167,-0.156041 -0.48318,-0.748639 z"
   id="path17077" /><path
   style="fill:#7aaaaa;fill-opacity:1;stroke:none;stroke-width:0.493384"
   d="m 772.74102,56.301084 c -6.40973,-0.45113 -18.0085,-1.24372 -25.77505,-1.761314 -10.54573,-0.702809 -14.57328,-1.030869 -15.90737,-1.295719 -3.50826,-0.696476 -14.45684,-3.242406 -17.9101,-4.164734 -4.38717,-1.171762 -5.78998,-1.653436 -23.26192,-7.987256 -22.77909,-8.257739 -32.53323,-11.299795 -45.26628,-14.117349 -12.84081,-2.841397 -23.07993,-4.10875 -34.69591,-4.294506 -6.33581,-0.101317 -10.10413,0.04069 -16.67297,0.628309 -10.41201,0.931414 -22.66245,0.930874 -46.53119,-0.0021 -11.00734,-0.430228 -12.94264,-0.529774 -28.32703,-1.457056 -26.87096,-1.619626 -24.7548,-1.444757 -30.70889,-2.537626 -2.90076,-0.532431 -5.40638,-1.018599 -5.56806,-1.080373 -0.25617,-0.09788 6.96945,-1.933077 17.90265,-4.547005 19.03683,-4.5513571 48.58167,-5.1298079 86.00189,-1.68381 31.28612,2.881114 67.89037,8.654062 90.17014,14.220956 8.81562,2.202702 11.90552,3.292186 13.95085,4.919022 1.94158,1.544315 7.45952,3.100274 15.68792,4.423718 3.55192,0.571286 8.68027,1.298334 16.80735,2.382788 20.59415,2.748022 28.81994,4.092675 36.89328,6.030875 4.44144,1.066277 13.81271,3.832707 22.52544,6.649595 l 4.46597,1.44388 v 2.546517 2.546515 l -1.06333,-0.02157 c -0.58483,-0.01186 -6.30765,-0.390676 -12.71739,-0.841806 z"
   id="path17116" /><path
   style="fill:#7aaaaa;fill-opacity:1;stroke:none;stroke-width:0.493384"
   d="m 785.50095,49.488877 c -3.56543,-1.276581 -15.71463,-5.000718 -21.3464,-6.543385 -9.07355,-2.485448 -18.28446,-4.097075 -39.30578,-6.87731 -24.44759,-3.233387 -30.98902,-4.593981 -33.93992,-7.059384 -0.9132,-0.762956 -1.50214,-1.065603 -3.58892,-1.844275 -3.23824,-1.208331 -10.31099,-3.080327 -18.35963,-4.859369 -3.71736,-0.821672 -15.06406,-3.088221 -18.41682,-3.678836 l -1.65879,-0.292207 V 9.1670557 0 h 68.81852 68.81853 v 24.924386 c 0,13.708412 -0.0191,24.918791 -0.0425,24.911954 -0.0234,-0.0068 -0.46361,-0.163195 -0.97826,-0.347463 z"
   id="path17155" /><path
   style="fill:#7aaaaa;fill-opacity:1;stroke:none;stroke-width:0.493384"
   d="m 647.8348,64.353837 1.07676,-0.06075 -0.056,-17.089866 c -0.0308,-9.399426 -0.0222,-17.08985 0.0191,-17.089832 0.25367,1.13e-4 7.19724,1.862755 10.40026,2.789911 9.62442,2.785919 16.9473,5.302689 34.94997,12.011804 14.12751,5.264945 17.74347,6.293391 35.89792,10.210025 10.34141,2.23105 14.76334,3.253639 17.65503,4.082796 2.59083,0.742888 4.77523,1.671851 4.93982,2.100763 0.6186,1.612057 -10.13246,2.314265 -35.5249,2.320316 -14.39828,0.0034 -36.08741,0.237258 -55.37807,0.59702 -12.81675,0.239026 -16.55718,0.273224 -13.97995,0.127814 z"
   id="path17194" /><path
   style="fill:#7aaaaa;fill-opacity:1;stroke:none;stroke-width:0.493384"
   d="M 792.5189,51.853031 786.52174,49.80173 V 24.900865 0 h 54.44234 54.44235 v 21.170009 c 0,20.014238 -0.0163,21.17492 -0.29773,21.259931 -0.16376,0.04946 -1.56097,0.367165 -3.10492,0.706014 -4.2622,0.935423 -10.78599,2.501995 -15.99244,3.840298 l -4.67864,1.202631 -5.75925,-0.211986 c -5.89564,-0.217007 -12.58281,-0.153296 -18.2294,0.173679 -1.68431,0.09753 -5.85681,0.331457 -9.27222,0.519833 -11.5513,0.637105 -15.2236,1.029103 -27.83542,2.971278 -3.98706,0.613992 -5.63124,0.939703 -9.11587,1.805847 -1.09401,0.271928 -2.12756,0.4882 -2.29679,0.480605 -0.16922,-0.0076 -3.0064,-0.936893 -6.30485,-2.065108 z"
   id="path17233" /><path
   style="fill:#7aaaaa;fill-opacity:1;stroke:none;stroke-width:0.493384"
   d="m 1009.0548,47.97696 -6.7202,-0.09661 -3.26236,-0.713773 c -9.38648,-2.053673 -12.66116,-2.798076 -21.2367,-4.827537 -5.1465,-1.217956 -10.94675,-2.589891 -12.88943,-3.048743 -4.71719,-1.114178 -10.1864,-2.257426 -13.31095,-2.782437 -5.1941,-0.872754 -6.76636,-1.014681 -11.3138,-1.021301 -4.67797,-0.0068 -4.44095,-0.03068 -15.22684,1.533477 -7.88892,1.144041 -16.42198,2.645451 -25.15756,4.426523 -2.51435,0.512645 -4.58146,0.90941 -4.59357,0.881703 -0.0121,-0.02771 -0.002,-9.562902 0.0218,-21.18932 L 895.40907,0 h 95.27278 95.27275 v 23.113909 23.113909 l -3.275,0.114541 c -9.7163,0.339819 -63.3778,1.799567 -64.9987,1.76815 -1.0482,-0.02032 -4.93,-0.08041 -8.6261,-0.133549 z"
   id="path17272" /><path
   style="fill:#7aaaaa;fill-opacity:1;stroke:none;stroke-width:0.493384"
   d="m 880.20466,48.502199 -1.16585,-0.09955 4.14316,-0.996661 c 17.66648,-4.249765 34.4572,-7.358886 51.09969,-9.462081 3.32588,-0.420308 8.15338,-0.456399 11.48394,-0.08586 5.96365,0.663492 10.45577,1.579446 26.71077,5.446389 5.28686,1.257705 11.75615,2.782772 14.37618,3.389037 l 4.76371,1.1023 -8.08129,-0.117963 c -4.4447,-0.06488 -23.12523,-0.119733 -41.51228,-0.121896 -33.74871,-0.004 -37.73804,0.05002 -49.33838,0.667681 -5.48261,0.291924 -10.90579,0.412993 -12.47965,0.278601 z"
   id="path17311" /><path
   style="fill:#7aaaaa;fill-opacity:1;stroke:none;stroke-width:0.493384"
   d="m 1157.4102,50.259939 c -13.0107,-0.70298 -36.8745,-2.173793 -55.2079,-3.402672 -9.2986,-0.623275 -12.0281,-0.753297 -13.9083,-0.662523 l -2.3394,0.112937 V 23.153841 0 h 81.6635 81.6636 v 20.303008 20.30301 l -12.8025,0.111843 c -14.293,0.124866 -24.7041,0.357363 -28.2845,0.631644 -9.4321,0.722557 -19.6919,2.691355 -37.6726,7.229142 -4.2512,1.072859 -8.0026,1.94072 -8.3365,1.928579 -0.3339,-0.01215 -2.4829,-0.123421 -4.7754,-0.247287 z"
   id="path17350" /><path
   style="fill:#7aaaaa;fill-opacity:1;stroke:none;stroke-width:0.493384"
   d="m 1262.3393,40.704174 -13.0576,-0.04466 V 20.329756 0 H 1344.6408 1440 v 14.206049 14.206049 l -55.5057,0.0015 c -36.1116,0.001 -56.1893,0.06175 -57.4622,0.174011 -9.0596,0.799016 -23.0413,4.1095 -44.9357,10.639596 -3.5535,1.059854 -5.6039,1.590523 -6.0397,1.563136 -0.3628,-0.0228 -6.5357,-0.06156 -13.7174,-0.08612 z"
   id="path17389" /><path
   style="fill:#7aaaaa;fill-opacity:1;stroke:none;stroke-width:0.493384"
   d="M 1199.603,64.925343 V 53.081286 h 20.9075 c 22.9189,0 21.3597,0.063 25.7938,-1.04218 2.8043,-0.698938 9.472,-2.637167 17.1834,-4.995059 33.0727,-10.112459 46.6735,-13.769144 57.845,-15.552156 5.7023,-0.910108 2.4122,-0.864668 62.7363,-0.866435 l 55.931,-0.0016 v 20.986295 20.986297 l -5.3166,0.114795 c -7.5327,0.162641 -62.992,1.160804 -123.984,2.231473 -24.0121,0.421514 -53.7727,0.912931 -76.8147,1.26839 -11.8838,0.183325 -24.4587,0.383947 -27.9442,0.445825 l -6.3375,0.112507 z"
   id="path17428" /><path
   style="fill:#7aaaaa;fill-opacity:1;stroke:none;stroke-width:0.493384"
   d="m 1174.6786,49.76392 c 15.3882,-3.87787 26.654,-5.886783 35.7278,-6.370926 7.6068,-0.405865 45.1128,-0.795426 54.2722,-0.563705 l 5.104,0.129123 -8.2514,2.501904 c -11.2173,3.401199 -14.9026,4.438544 -17.9757,5.059867 -1.7121,0.346155 -2.0578,0.349226 -37.4291,0.332486 l -35.7011,-0.0169 z"
   id="path17467" /><path
   style="fill:#7aaaaa;fill-opacity:1;stroke:none;stroke-width:0.493384"
   d="m 941.29962,79.514707 c -0.28063,-0.08281 -0.29773,-0.948382 -0.29773,-15.074069 V 49.45443 l 16.80057,0.112873 c 29.17096,0.195983 38.75487,0.294875 44.61724,0.460385 11.4894,0.32438 17.2925,0.208364 76.5595,-1.530575 l 11.1437,-0.326964 13.6956,0.918337 c 28.7813,1.929875 50.3108,3.214966 62.6021,3.736707 4.1342,0.175486 10.3058,0.256093 19.6078,0.256093 h 13.5746 v 11.804501 11.804501 l -5.6569,0.109555 c -11.6818,0.226237 -34.874,0.439627 -47.9348,0.441046 -38.7749,0.0042 -92.8785,0.790942 -111.4366,1.62042 -3.1347,0.140109 -8.5704,0.336336 -12.0794,0.436058 -6.4238,0.18256 -80.64035,0.381219 -81.19568,0.21734 z"
   id="path17506" /><path
   style="fill:#7aaaaa;fill-opacity:1;stroke:none;stroke-width:0.493384"
   d="m 921.09641,79.271813 c -3.22826,-0.06833 -8.16635,-0.22805 -10.97354,-0.354927 -4.09426,-0.185049 -13.66954,-0.215932 -48.40264,-0.156105 -88.25379,0.152017 -127.82209,0.114033 -128.23724,-0.123099 -2.09246,-1.1952 5.2863,-5.312989 16.4603,-9.185832 7.74903,-2.685767 13.4345,-4.316493 27.66919,-7.936171 6.06975,-1.543451 11.91635,-3.04272 12.99244,-3.331709 10.631,-2.855018 15.97976,-4.013104 23.61735,-5.113509 11.62939,-1.675536 14.61288,-1.93242 33.63217,-2.895805 5.58239,-0.282765 14.21658,-0.281044 19.56522,0.0039 5.93694,0.316285 22.03865,0.346252 26.71078,0.04971 6.26016,-0.397332 13.32078,-0.552775 30.15595,-0.663895 l 16.7155,-0.11033 v 14.729763 c 0,8.10137 0.0465,14.850865 0.10327,14.998876 0.0933,0.243026 -0.58709,0.266412 -7.01796,0.241243 -3.91668,-0.01533 -9.76253,-0.08378 -12.99079,-0.152112 z"
   id="path17545" /><path
   style="fill:#7aaaaa;fill-opacity:1;stroke:none;stroke-width:0.493384"
   d="m 786.52174,54.601677 v -2.530258 l 4.08318,1.395789 c 2.24574,0.767684 4.08317,1.439545 4.08317,1.493025 0,0.05348 -1.83743,0.56399 -4.08317,1.134469 l -4.08318,1.037234 z"
   id="path17584" /><metadata
   id="metadata17623"><rdf:RDF><cc:Work
       rdf:about=""><dc:title>Group 4</dc:title></cc:Work></rdf:RDF></metadata></svg>
