<?xml version="1.0" encoding="UTF-8" standalone="no"?>
<!-- Generator: Adobe Illustrator 23.0.1, SVG Export Plug-In . SVG Version: 6.00 Build 0)  -->

<svg
   version="1.1"
   id="Layer_1"
   x="0px"
   y="0px"
   viewBox="0 0 1440 95"
   style="enable-background:new 0 0 1440 95;"
   xml:space="preserve"
   sodipodi:docname="hero-footer4.svg"
   inkscape:version="1.1.1 (3bf5ae0d25, 2021-09-20)"
   xmlns:inkscape="http://www.inkscape.org/namespaces/inkscape"
   xmlns:sodipodi="http://sodipodi.sourceforge.net/DTD/sodipodi-0.dtd"
   xmlns="http://www.w3.org/2000/svg"
   xmlns:svg="http://www.w3.org/2000/svg"
   xmlns:rdf="http://www.w3.org/1999/02/22-rdf-syntax-ns#"
   xmlns:cc="http://creativecommons.org/ns#"
   xmlns:dc="http://purl.org/dc/elements/1.1/"><defs
   id="defs14782" /><sodipodi:namedview
   id="namedview14780"
   pagecolor="#ffffff"
   bordercolor="#666666"
   borderopacity="1.0"
   inkscape:pageshadow="2"
   inkscape:pageopacity="0.0"
   inkscape:pagecheckerboard="0"
   showgrid="false"
   inkscape:zoom="0.5"
   inkscape:cx="767"
   inkscape:cy="89"
   inkscape:window-width="1920"
   inkscape:window-height="1017"
   inkscape:window-x="-8"
   inkscape:window-y="-8"
   inkscape:window-maximized="1"
   inkscape:current-layer="Layer_1" />
<style
   type="text/css"
   id="style14711">
	.st0{fill-rule:evenodd;clip-rule:evenodd;fill:#94A294;}
	.st1{fill-rule:evenodd;clip-rule:evenodd;fill:#F7D3B0;}
	.st2{fill-rule:evenodd;clip-rule:evenodd;fill:#94A294;stroke:#F7D3B0;stroke-width:2;}
	.st3{fill:#F7D3B0;}
	.st4{fill-rule:evenodd;clip-rule:evenodd;fill:#829182;}
	.st5{fill-rule:evenodd;clip-rule:evenodd;fill:#575552;}
	.st6{fill-rule:evenodd;clip-rule:evenodd;fill:#F4C9A1;}
	.st7{filter:url(#Adobe_OpacityMaskFilter);}
	.st8{fill-rule:evenodd;clip-rule:evenodd;fill:#FFFFFF;}
	.st9{mask:url(#mask-2_1_);fill-rule:evenodd;clip-rule:evenodd;fill:#575552;}
	.st10{filter:url(#Adobe_OpacityMaskFilter_1_);}
	.st11{mask:url(#mask-4_1_);fill-rule:evenodd;clip-rule:evenodd;fill:#F7D3B0;}
</style>
<title
   id="title14713">Group 4</title>
<desc
   id="desc14715">Created with Sketch.</desc>
<g
   id="Portfolio">
	<g
   id="Group-4"
   transform="translate(-1.000000, 0.000000)">
		<rect
   id="Rectangle"
   x="1"
   class="st0"
   width="1440"
   height="95" />
		<g
   id="Group-3-Copy"
   transform="translate(0.000000, 5.000000)">
			<rect
   x="1"
   y="49"
   class="st1"
   width="1440"
   height="41"
   id="rect14718" />
			<path
   id="Path-8"
   class="st2"
   d="M427.2,24.8c80,9.4,131.2,14.1,153.7,14.1c33.7,0,110.1,8.5,116.2,8.5     c6.1,0,116.2,7.7,116.2,7.7s-24.3-9.4-48.7-16.2s-68.2-8.3-73.4-14.1C686.1,19,555.6-5.9,500.4,7.7     C463.6,16.8,439.2,22.5,427.2,24.8z" />
			<path
   id="Path-10"
   class="st2"
   d="M40.4,32.3c35.6-11.7,69.4-20,101.5-24.9C157,5.2,299.4-1.2,353.4,1     c116.8,4.8,182,24.1,201.5,31.3C583.5,42.9,89.1,45,89.1,45S72.9,40.8,40.4,32.3z" />
			<path
   id="Path-4"
   class="st3"
   d="M3,25v33.7c54.4-1.1,90.3-1.1,107.8,0c4.9,0.3,22.5,1.8,51.4,4.6s40.9,4.7,109.6,5.6     c84.4,1.1,95-3.6,207.7-5.6s175.3-4.6,242.6-4.6s9.7-7.1-12.3-13.7c-22-6.6-67.1-29.6-115.6-24.7C545.9,25.2,388,4,308.6,15.4     C255.6,23,153.8,26.2,3,25z M3,23c150.7,1.3,252.5-1.9,305.3-9.5c29.5-4.2,70.1-4.4,127.2-1.5c13.5,0.7,27,1.5,46,2.6     c53.1,3.3,51,3.2,66.5,3.8c21.4,0.9,36.3,1,46.2,0c26.4-2.7,52.5,2.2,83.5,13c4.3,1.5,28,10.3,32.9,11.8c1.4,0.4,2.9,0.8,4.7,1.3     c3.5,0.9,7.5,1.8,13.3,3.1c22.6,4.9,24.1,5.2,26.2,6.9c1.8,1.4,1.3,3.7-0.7,4.6c-1,0.5-2.8,0.8-5.3,1c-5.1,0.5-13.7,0.8-26.5,0.8     c-5.7,0-11.4,0-17.2,0.1c-21.6,0.1-43.6,0.5-74,1.2c-7.8,0.2-68.2,1.6-88.8,2.1c-21.2,0.5-41.6,0.9-62.6,1.2     c-32.1,0.6-57.4,1.3-83,2.5c-8.2,0.4-37.3,1.8-44.3,2c-26.4,1.1-48.6,1.5-80.4,1.1c-46.7-0.6-68-1.6-91.6-3.8     c-3-0.3-14.9-1.5-18.2-1.8c-25.5-2.4-45.4-4.2-51.3-4.6c-17.4-1.1-53.3-1.1-107.7,0l-2,0V22.9L3,23z" />
			<path
   id="Path-4-Copy"
   class="st0"
   d="M1,25c152.1,1.3,254.6-1.9,307.6-9.5C388,4,545.9,25.2,594.3,20.3     c48.4-4.9,93.6,18.1,115.6,24.7c22,6.6,79.6,13.7,12.3,13.7s-130,2.6-242.6,4.6s-123.2,6.7-207.7,5.6     c-68.7-0.9-80.6-2.8-109.6-5.6s-46.5-4.2-51.4-4.6c-17.5-1.1-54.1-1.1-109.8,0V25z" />
			<g
   id="Group"
   transform="translate(217.700416, 1.000000)">
				<g
   id="Group-8">
					<g
   id="Group-21"
   transform="translate(0.000000, 0.032053)">
						<path
   id="Fill-1"
   class="st4"
   d="M3.6,9.3c0,0,50.3,18.8,113.9-7l-1.7,13.6c0,0-92.6,18.7-106.5,7.4L3.6,9.3z" />
						<path
   id="Fill-3"
   class="st5"
   d="M9.5,23c13.6,10.7,101.1-6.5,106-7.5l1.6-12.9c-14.4,5.8-29.3,9.8-44.2,11.8        c-12.1,1.7-24.3,2.1-36.2,1.2c-17.8-1.3-29.8-5-32.6-6L9.5,23z M29.5,27.2c-10.6,0-17.4-1.2-20.4-3.7l-0.1,0l0-0.1L3.1,8.8        L3.7,9c0.1,0,12.8,4.7,33,6.2c11.9,0.9,24,0.4,36.1-1.2c15.1-2.1,30.1-6.1,44.5-12l0.5-0.2l-1.8,14.3l-0.2,0        c-0.2,0-23.4,4.7-48.1,7.9C52,26.1,39.2,27.2,29.5,27.2z" />
						<path
   id="Fill-5"
   class="st4"
   d="M1.2,11c0,0,0.3,14.3,2.8,16.4c2.8,2.3,39.6,9.4,64.3,7.3c23.5-2,43.5-12.6,48.7-15.2        c0.7-0.4,1.2-1,1.4-1.8c0.7-3.3,2.4-12.4,1.6-15.6c0,0-16.7,15.7-58.6,18.2C19.6,22.8,1.2,11,1.2,11" />
						<path
   id="Fill-7"
   class="st5"
   d="M1.5,11.5c0.1,4.3,0.8,14,2.7,15.6C7,29.5,41.6,36,65.6,34.6c0.9-0.1,1.8-0.1,2.7-0.2        c22.5-1.9,41.6-11.6,47.9-14.8l0.7-0.4c0.6-0.3,1.1-0.9,1.2-1.6c0.5-2.7,2.2-11.4,1.7-15c-1.3,1-5.5,4.4-13.3,7.9        c-8.6,3.9-23.4,8.8-45.1,10.1c-21.7,1.3-36.9-1.3-45.9-3.7C7.5,14.7,2.9,12.3,1.5,11.5 M65.5,35.2C40.9,36.6,6.7,30,3.8,27.6        c-2.6-2.2-2.9-16-2.9-16.6l0-0.5l0.5,0.3c0,0,4.7,3,14.4,5.5c8.8,2.4,23.8,4.9,45,3.7c0.2,0,0.5,0,0.7,0        c21.6-1.3,36.3-6.2,44.9-10c9.3-4.2,13.5-8.1,13.5-8.1l0.4-0.3l0.1,0.5c0.8,3.2-0.8,12-1.6,15.7c-0.2,0.9-0.7,1.6-1.5,2        l-0.7,0.4c-6.3,3.2-25.5,13-48.1,14.9C67.4,35.1,66.5,35.1,65.5,35.2" />
						<polygon
   id="Fill-9"
   class="st6"
   points="45.2,15.7 43.5,20.8 50.6,20.9 49.5,15.5       " />
						<path
   id="Fill-11"
   class="st5"
   d="M43.9,20.5l6.3,0.1l-0.9-4.8L45.4,16L43.9,20.5z M50.9,21.2l-7.8-0.1l1.8-5.6l4.8-0.3        L50.9,21.2z" />
						<polygon
   id="Fill-13"
   class="st6"
   points="81.2,12.9 83.4,17.8 76.4,18.7 76.8,13.2       " />
						<path
   id="Fill-15"
   class="st5"
   d="M77.1,13.5l-0.4,4.9l6.2-0.8L81,13.3L77.1,13.5z M76.1,19l0.5-6.1l4.8-0.3l2.4,5.4L76.1,19z        " />
						<path
   id="Fill-17"
   class="st6"
   d="M65.1,18.6c-36.5,3.4-61.4-8-61.4-8s20.8,8.2,58.5,5.8c29.3-1.9,50.5-11.7,54.6-13.7        c0.1-0.1,0.2,0.1,0.1,0.2C113.9,5.2,99.7,15.4,65.1,18.6 M115.1,1.2c-5.6,2.5-28.2,12.1-58.4,13.3C26.4,15.7,9.3,9.9,4.9,8.9        c-0.8-0.2-2.1-0.5-3.3,0c-1.4,0.6-1.5,2.6-0.2,3.3c6.1,3.3,27.2,12.1,60,9.5c39.6-3.1,54.1-14.9,57.9-18.2        C121,2.1,120.7-1.3,115.1,1.2" />
						<path
   id="Fill-19"
   class="st5"
   d="M12.9,13.5c8.3,2.4,21.9,5.4,38.8,5.4c4.3,0,8.7-0.2,13.4-0.6c14.7-1.4,27.4-4.1,37.7-8.2        c6.3-2.5,10.3-4.9,12.5-6.4c-6.6,3-26.5,11.2-53,13c-19.5,1.3-34.4-0.4-43.4-2C16.6,14.3,14.6,13.9,12.9,13.5 M51.7,19.5        c-28.8,0-47.9-8.6-48.1-8.7l0.2-0.5C4,10.4,25,18.5,62.2,16.1c29.3-1.9,50.5-11.8,54.5-13.7c0.2-0.1,0.4,0,0.5,0.1        c0.1,0.2,0.1,0.4-0.1,0.5c-1.5,1.2-5.8,4.4-14.1,7.7c-10.4,4.1-23.1,6.8-37.9,8.2l0-0.3l0,0.3C60.5,19.3,56,19.5,51.7,19.5         M3,8.9C2.6,8.9,2.2,9,1.8,9.1c-0.6,0.2-0.9,0.7-0.9,1.3c0,0.6,0.3,1.2,0.8,1.5c3.8,2.1,24.8,12.2,59.9,9.5        c26.4-2.1,46.4-8.4,57.7-18.2c0.7-0.6,0.9-1.5,0.6-2.1c-0.5-0.8-2.2-0.7-4.6,0.3c-8,3.6-29.8,12.2-58.6,13.3        c-26.8,1.1-43.5-3.4-49.8-5.1C6,9.5,5.4,9.3,4.9,9.2l-0.2,0C4.2,9,3.6,8.9,3,8.9 M49.7,22.4c-28.1,0-44.9-8.2-48.3-10        c-0.7-0.4-1.2-1.2-1.1-2c0-0.8,0.5-1.5,1.3-1.8c1.2-0.5,2.5-0.2,3.3,0l0.2,0c0.5,0.1,1.2,0.3,2,0.5c6.3,1.7,22.9,6.1,49.6,5        C85.3,13.1,107,4.6,115,0.9c1.3-0.6,4.3-1.7,5.3-0.1c0.5,0.8,0.2,2-0.7,2.8c-11.4,9.9-31.5,16.2-58,18.3        C57.4,22.3,53.4,22.4,49.7,22.4" />
					</g>
					<g
   id="Group-24"
   transform="translate(0.618067, 0.342514)">
						<g
   id="Clip-23">
						</g>
						<defs
   id="defs14739">
							<filter
   id="Adobe_OpacityMaskFilter"
   filterUnits="userSpaceOnUse"
   x="-24"
   y="-10.3"
   width="155"
   height="51.4">
								<feColorMatrix
   type="matrix"
   values="1 0 0 0 0  0 1 0 0 0  0 0 1 0 0  0 0 0 1 0"
   id="feColorMatrix14736" />
							</filter>
						</defs>
						<mask
   maskUnits="userSpaceOnUse"
   x="-24"
   y="-10.3"
   width="155"
   height="51.4"
   id="mask-2_1_">
							<g
   class="st7"
   id="g14742">
								<path
   id="path-1_1_"
   class="st8"
   d="M56.2,14.2C26,15.4,8.9,9.7,4.5,8.6c-0.8-0.2-2.1-0.5-3.3,0c-1.4,0.6-1.5,2.6-0.2,3.3          c6.1,3.3,27.2,12.1,60,9.5c39.6-3.1,54-15,57.9-18.3c1.2-1,1.3-3.1-1-3.1c-0.8,0-1.9,0.3-3.3,0.9          C109.1,3.4,86.5,13.1,56.2,14.2z M61.8,16.1c29.3-1.9,50.5-11.8,54.6-13.8c0.1-0.1,0.2,0.1,0.1,0.2          c-3,2.5-17.2,12.7-51.8,15.9c-36.5,3.4-61.4-8-61.4-8s15.8,6.3,44.6,6.3C52.3,16.6,56.9,16.5,61.8,16.1z" />
							</g>
						</mask>
						<path
   id="Fill-22"
   class="st9"
   d="M119.5-9.2L119-9.6L79.6,34.8l0.4,0.4L119.5-9.2z M131-9.9l-0.4-0.4L91.1,34.1l0.4,0.4        L131-9.9z M125.3-9l-0.4-0.4L85.4,35l0.4,0.4L125.3-9z M113.7-8.4l-0.4-0.4L73.9,35.6l0.4,0.4L113.7-8.4z M108-8.1l-0.4-0.4        L68.1,35.9l0.4,0.4L108-8.1z M102.2-7.8l-0.4-0.4L62.4,36.2l0.4,0.4L102.2-7.8z M96.5-7.5L96-7.9L56.6,36.5l0.4,0.4L96.5-7.5z         M90.7-7.2l-0.4-0.4L50.8,36.8l0.4,0.4L90.7-7.2z M85-6.9l-0.4-0.4L45.1,37.1l0.4,0.4L85-6.9z M79.2-6.6L78.8-7L39.3,37.4        l0.4,0.4L79.2-6.6z M73.5-6.3L73-6.7L33.6,37.7l0.4,0.4L73.5-6.3z M67.7-6l-0.4-0.4L27.8,38l0.4,0.4L67.7-6z M61.9-5.7        l-0.4-0.4L22.1,38.3l0.4,0.4L61.9-5.7z M56.2-5.4l-0.4-0.4L16.3,38.6l0.4,0.4L56.2-5.4z M50.4-5.1L50-5.5L10.6,38.9l0.4,0.4        L50.4-5.1z M44.7-4.8l-0.4-0.4L4.8,39.2l0.4,0.4L44.7-4.8z M33.1-4.4l-0.4-0.4L-6.7,39.6l0.4,0.4L33.1-4.4z M38.9-4.5        l-0.4-0.4L-1,39.5l0.4,0.4L38.9-4.5z M27.4-3.9L27-4.3l-39.4,44.4l0.4,0.4L27.4-3.9z M21.6-3.6L21.2-4l-39.4,44.4l0.4,0.4        L21.6-3.6z M-23.5,41.1l-0.4-0.4L15.5-3.7l0.4,0.4L-23.5,41.1z"
   mask="url(#mask-2_1_)" />
					</g>
					<g
   id="Group-44"
   transform="translate(11.125213, 12.245416)">
						<path
   id="Fill-25"
   class="st6"
   d="M103.3,0.8c0.1-0.2,0.4-0.1,0.4,0.1c0,1-0.1,3-1.3,4.3c-1.7,1.8-16.5,8.1-19.6,8.8        C79.7,14.8,98.6,7.2,103.3,0.8" />
						<path
   id="Fill-27"
   class="st6"
   d="M25.1,31.3c-0.5,0-0.9,0.5-0.7,0.9c0.4,1.2,0.3,2.2,1,2.1c1-0.1,2.2-1.2,4.8-1.4        c2.6-0.2,49.1-4.7,50.1-4.3c0.5,0.2,5.9,2,9,2.1c4.2,0.1,4.2-0.3,8.3-0.6c5.3-0.4,8.1-1.3,9.4-1.8c0.6-0.2,0.8-0.8,0.6-1.4        c-0.9-1.9-3-5.8-5.8-6.9c0,0-13,0.6-16.4,1.9c-3.4,1.4-5.8,4.7-5.8,4.7L30,31.5L25.1,31.3z" />
						<g
   id="Group-31"
   transform="translate(23.970993, 19.779992)">
							<g
   id="Clip-30">
							</g>
							<defs
   id="defs14753">
								<filter
   id="Adobe_OpacityMaskFilter_1_"
   filterUnits="userSpaceOnUse"
   x="0.1"
   y="0"
   width="84"
   height="14.8">
									<feColorMatrix
   type="matrix"
   values="1 0 0 0 0  0 1 0 0 0  0 0 1 0 0  0 0 0 1 0"
   id="feColorMatrix14750" />
								</filter>
							</defs>
							<mask
   maskUnits="userSpaceOnUse"
   x="0.1"
   y="0"
   width="84"
   height="14.8"
   id="mask-4_1_">
								<g
   class="st10"
   id="g14756">
									<polygon
   id="path-3_1_"
   class="st8"
   points="0.1,0 84.2,0 84.2,14.9 0.1,14.9          " />
								</g>
							</mask>
							<path
   id="Fill-29"
   class="st11"
   d="M1.1,11.8c-0.1,0-0.2,0.1-0.3,0.2c-0.1,0.1-0.1,0.2-0.1,0.4c0.1,0.4,0.2,0.7,0.3,1         c0.2,0.7,0.3,0.9,0.5,0.9c0.3,0,0.7-0.2,1.2-0.4c0.8-0.4,1.9-0.9,3.6-1c0.7,0,5-0.4,10.9-1c24.4-2.3,38.6-3.6,39.3-3.3         c0.1,0,5.7,2,8.9,2.1c2.6,0.1,3.5-0.1,4.9-0.2c0.9-0.1,1.8-0.2,3.4-0.4c5.6-0.4,8.4-1.4,9.4-1.7c0.2-0.1,0.3-0.2,0.4-0.4         c0.1-0.2,0.1-0.4,0-0.6c-0.8-1.7-2.8-5.7-5.6-6.7c-1,0-13,0.6-16.3,1.9c-3.3,1.3-5.7,4.5-5.7,4.6l-0.1,0.1l-0.1,0L6.1,12         L1.1,11.8C1.1,11.8,1.1,11.8,1.1,11.8 M1.5,14.9c-0.7,0-0.8-0.7-1-1.4c-0.1-0.3-0.1-0.6-0.3-1c-0.1-0.3-0.1-0.7,0.1-0.9         c0.2-0.3,0.5-0.4,0.8-0.4l4.9,0.1l49.5-4.7C56,6.1,58.3,3.3,61.4,2c3.4-1.4,16-1.9,16.5-2L78,0l0.1,0c2.9,1,5,4.9,6,7         c0.2,0.3,0.2,0.7,0,1.1c-0.1,0.3-0.4,0.6-0.8,0.7c-1,0.3-3.9,1.4-9.5,1.8c-1.6,0.1-2.5,0.2-3.4,0.3c-1.3,0.2-2.4,0.3-5,0.2         c-3.3-0.1-9.1-2.1-9.1-2.1c-1.1-0.2-25.8,2.1-39.1,3.4c-5.9,0.6-10.2,1-10.9,1c-1.6,0.1-2.6,0.6-3.4,0.9         C2.4,14.6,2,14.9,1.5,14.9C1.5,14.9,1.5,14.9,1.5,14.9"
   mask="url(#mask-4_1_)" />
						</g>
						<path
   id="Fill-32"
   class="st0"
   d="M10.7,25.9c0.1,0,0.2-0.1,0.3-0.2c1.1-2.5,3.4-4.1,3.4-4.1c0.1-0.1,0.2-0.3,0.1-0.4        c-0.1-0.1-0.3-0.2-0.4-0.1c-0.1,0.1-2.4,1.7-3.6,4.4c-0.1,0.1,0,0.3,0.1,0.4C10.7,25.9,10.7,25.9,10.7,25.9" />
						<path
   id="Fill-34"
   class="st0"
   d="M10.9,26c0.1,0,0.3-0.1,0.3-0.2c0.5-3.8-1.1-5-1.1-5.1c-0.1-0.1-0.3-0.1-0.4,0        c-0.1,0.1-0.1,0.3,0,0.4c0,0,1.3,1.2,0.9,4.6C10.6,25.9,10.7,26,10.9,26C10.9,26,10.9,26,10.9,26" />
						<path
   id="Fill-36"
   class="st0"
   d="M10.9,26.2C10.9,26.2,11,26.2,10.9,26.2c0.2-0.1,0.3-0.2,0.3-0.4c-0.5-1.4-1.4-2.2-1.4-2.2        c-0.1-0.1-0.3-0.1-0.4,0c-0.1,0.1-0.1,0.3,0,0.4c0,0,0.8,0.7,1.3,2C10.7,26.1,10.8,26.2,10.9,26.2" />
						<path
   id="Fill-38"
   class="st0"
   d="M2.6,32L2.6,32c-0.2,0-0.3-0.1-0.3-0.3c-0.3-2-2.2-3.2-2.2-3.2C0,28.4,0,28.2,0,28.1        c0.1-0.1,0.3-0.2,0.4-0.1c0.1,0,1.5,1,2.1,2.5c0.3-0.8,0.7-1.9,1.5-2.1c0.2-0.1,0.3,0,0.4,0.2c0.1,0.2,0,0.3-0.2,0.4        c-0.7,0.2-1.2,1.8-1.3,2.8C2.9,31.9,2.8,32,2.6,32" />
						<path
   id="Fill-40"
   class="st0"
   d="M29,29.4c0.1,0,0.3-0.1,0.3-0.2c0.1-0.3,0.7-1.1,1.1-1.6c0.1-0.1,0.1-0.3,0-0.4        c-0.1-0.1-0.3-0.1-0.4,0c-0.1,0.1-0.5,0.5-0.8,1c-0.2-1.3-0.7-3.4-2.2-4c-0.2-0.1-0.3,0-0.4,0.2c-0.1,0.2,0,0.3,0.2,0.4        c1.4,0.5,1.9,3.4,1.9,4.4C28.7,29.3,28.8,29.4,29,29.4C29,29.4,29,29.4,29,29.4" />
						<path
   id="Fill-42"
   class="st0"
   d="M29,29.4c0,0,0.1,0,0.1,0c0.2-0.1,0.2-0.2,0.2-0.4c-0.9-2-2.2-2.5-2.3-2.5        c-0.2-0.1-0.3,0-0.4,0.2c-0.1,0.2,0,0.3,0.2,0.4c0.1,0,1.2,0.5,2,2.2C28.8,29.3,28.9,29.4,29,29.4" />
					</g>
				</g>
				<path
   id="Path-2"
   class="st0"
   d="M98.3,36.3c3.6-0.7,6.6-1.1,8.9-1.4c2.3-0.2,3.9-0.2,5,0c1.2,0.9,1.8,1.6,1.8,2.1      c0,0.3-0.2-0.5-3.7-0.7C108.6,36.2,104.6,36.2,98.3,36.3z" />
			</g>
			<path
   id="Path-6"
   class="st0"
   d="M0,0" />
			<path
   id="Path-7"
   class="st2"
   d="M833.9,56c36.1-12.3,70.3-20.4,102.6-24.3c24.7-3,62.1,20.6,177.3,24.3     c24.9,0.8,69.8-18,99.6-18.8c103.3-2.7,202.2,6.1,206.5,6.1C1427.6,43.4,1232.2,47.6,833.9,56z" />
			<path
   id="Path-5"
   class="st3"
   d="M736.6,74.3h74.1c8.6,0,83.4-0.9,99.9,0c16.4,0.9,104.1,1.1,123.5,0c19.5-1.1,87.3-1.7,121-1.7     c22.5,0,117.1-1.6,283.8-4.7V41h-107.7c-51.9,4.7-81.9,7-89.8,7h-65.9c-8.4,0-36.5-1.6-84.2-4.9l-70.2,2     c-69.2-0.9-111-0.9-125.6,0c-21.9,1.3-25.4-1.1-46.7,0c-21.3,1.1-20.9,1.1-33.6,2.9c-12.7,1.8-12.1,2.2-42.5,10     C742.4,65.7,727.6,74.3,736.6,74.3z M1441,23.5v46.4l-2,0c-166.8,3.1-261.4,4.7-283.9,4.7c-43.6,0-104.1,0.7-120.9,1.7     c-18.4,1-105.9,0.9-123.7,0c-6.8-0.4-23.8-0.4-48.6-0.3c-7.7,0-15.9,0.1-25,0.2c1.1,0-24.1,0.2-26.1,0.2h-74.1     c-1.5,0-2.5-0.2-3.3-0.7c-1.4-0.9-1.6-2.5-0.8-3.9c0.9-1.4,3.1-2.8,6.6-4.5c7.2-3.5,19.1-7.6,33.3-11.2     c2.1-0.5,29.5-7.7,33.5-8.5c1.3-0.3,2.6-0.5,4.1-0.7c1.4-0.2,3.1-0.5,5.1-0.8c8.3-1.2,10.1-1.4,13.7-1.7     c3.6-0.3,6.6-0.5,20.1-1.2c8.7-0.5,13.6-0.4,22.8,0.1c0.1,0,0.1,0,0.3,0c9.4,0.5,14.5,0.5,23.7-0.1c14.7-0.9,56.5-0.9,125.7,0     l70.2-2l0.2,0c47.7,3.2,75.8,4.8,84.1,4.8h65.9c7.8,0,68.2-22.5,89.6-22.5" />
			<path
   id="Path-5-Copy"
   class="st0"
   d="M736.6,74c-9.1,0,5.8-8.5,36.2-16.1s29.8-8.1,42.5-9.9c12.7-1.8,12.3-1.7,33.6-2.8     c21.3-1.1,24.9,1.3,46.8,0c14.6-0.9,56.5-0.9,125.7,0l70.2-2c47.8,3.2,75.9,4.8,84.3,4.8c12.6,0,54,0,65.9,0     c7.9,0,68.3-22.5,89.8-22.5c27.3,0,109.4,0,109.4,0v42.2c-167.9,3.1-263.1,4.6-285.6,4.6c-33.7,0-101.6,0.6-121.1,1.7     c-19.5,1.1-107.2,0.9-123.6,0c-16.4-0.9-91.3,0-99.9,0S745.7,74,736.6,74z" />
			<path
   id="Path-9"
   class="st0"
   d="M0,0" />
		</g>
	</g>
</g>
<path
   style="fill:#7aaaaa;fill-opacity:1;stroke:none;stroke-width:0.986768"
   d="m 259.79206,39.978803 c -18.33812,-1.545082 -37.68868,-5.235378 -39.15042,-7.466279 -0.73701,-1.12482 -1.71797,-6.153112 -2.01789,-10.3435 l -0.25073,-3.503077 1.99496,1.002841 c 7.08308,3.560562 18.72834,6.600338 31.0876,8.114828 6.82537,0.836374 23.16361,0.840191 30.62382,0.0072 8.5184,-0.9512 14.44043,-1.877338 20.24175,-3.16558 14.30662,-3.176927 24.31144,-7.374484 32.80091,-13.761734 l 1.49258,-1.1229731 -0.23646,2.3603831 c -0.32807,3.274807 -1.56692,11.016911 -1.90527,11.906847 -0.31576,0.830502 -3.94463,2.789093 -10.54096,5.689219 -12.48467,5.488975 -24.50139,8.894544 -36.23819,10.269998 -5.41728,0.63486 -20.43183,0.64125 -27.9017,0.01187 z m 55.55992,-9.224989 c 8.95544,-3.529987 14.98613,-6.639309 15.63364,-8.060438 0.53106,-1.165555 0.91403,-3.97882 0.54163,-3.97882 -0.16943,0 -0.99069,0.701805 -1.82502,1.559567 -2.18928,2.250756 -7.14758,5.447939 -13.68144,8.821993 -3.13468,1.618739 -5.69943,3.007481 -5.69943,3.086094 0,0.398721 1.4135,-0.0026 5.03062,-1.428396 z"
   id="path16693" /><path
   style="fill:#7aaaaa;fill-opacity:1;stroke:none;stroke-width:0.986768"
   d="m 74.007562,28.048411 c 0.187145,-0.06941 3.862003,-1.047235 8.166351,-2.172951 C 107.72025,19.194326 135.24777,13.847569 149.54631,12.789506 189.87337,9.8053872 282.90755,6.5547539 318.99811,6.8688259 l 12.24953,0.1065994 -3.40265,1.4191976 c -13.15946,5.4886291 -29.01702,9.3202291 -45.76559,11.0581551 -5.73954,0.595566 -27.66854,0.601339 -33.34594,0.0088 -8.64595,-0.902392 -14.49495,-1.943451 -24.25306,-4.316783 -4.51706,-1.098622 -6.20646,-1.041743 -7.16047,0.24108 -0.60873,0.818535 -0.64088,1.072263 -0.28028,2.21172 0.31455,0.993907 1.09675,7.537944 0.93315,7.806856 -0.0605,0.0994 -30.08448,1.127344 -42.90664,1.469015 -23.7471,0.632786 -102.051482,1.5432 -101.058598,1.174967 z"
   id="path16843" /><path
   style="fill:#7aaaaa;fill-opacity:1;stroke:none;stroke-width:0.986768"
   d="m 452.04159,17.84432 c -14.38599,-0.845268 -29.62955,-1.604279 -45.42533,-2.261829 -11.14126,-0.46379 -59.97303,-0.5954 -65.71982,-0.177126 l -3.62152,0.263589 0.0487,-4.431084 0.0487,-4.431083 3.16061,-7.485e-4 c 13.76632,-0.00325 53.21285,2.5220862 77.31198,4.9494575 17.2143,1.733902 43.89203,5.174655 51.0397,6.582834 1.43895,0.283491 1.37746,0.301182 -1.0208,0.293684 -1.40359,-0.0044 -8.52362,-0.358851 -15.8223,-0.787694 z"
   id="path16882" /><path
   style="fill:#7aaaaa;fill-opacity:1;stroke:none;stroke-width:0.986768"
   d="M 253.1569,73.468671 C 218.41575,72.799224 199.69007,71.85254 176.08696,69.572358 114.53829,63.626448 108.02514,63.150703 82.854442,62.762325 68.954278,62.54785 12.87476,63.067536 4.5085066,63.488355 L 0.34026465,63.698016 V 46.990784 30.283554 l 53.16635135,-0.0039 c 51.479964,-0.0038 82.719214,-0.282043 114.243854,-1.01768 17.99268,-0.419865 43.94824,-1.262007 47.89225,-1.55389 2.79648,-0.206958 2.80719,-0.204626 2.80719,0.611699 0,1.45417 1.04927,4.405028 1.85167,5.207428 1.0443,1.0443 4.14448,1.954112 12.09918,3.550753 13.2081,2.651091 25.77029,4.046852 38.9603,4.328807 15.88005,0.339459 26.4757,-1.168227 40.04249,-5.697764 8.39585,-2.803117 22.18557,-8.920145 23.51545,-10.4313 0.34548,-0.392575 0.86462,-2.032271 1.19981,-3.78958 0.32496,-1.703676 0.73995,-3.246582 0.92221,-3.42868 0.19282,-0.192646 6.80512,-0.497821 15.81342,-0.729831 29.01849,-0.747375 68.34338,0.582097 127.25898,4.302293 55.97626,3.534592 73.28995,4.350394 92.55199,4.360945 11.34694,0.0062 16.25563,-0.127454 21.03186,-0.57272 15.79835,-1.472809 32.79259,-0.246153 50.20557,3.623872 l 4.81172,1.069404 0.0882,17.062768 0.0882,17.062768 -4.8519,0.200008 c -2.66856,0.110004 -8.98612,0.284328 -14.03905,0.387391 -5.05293,0.103063 -21.81947,0.485476 -37.25898,0.849811 -45.53037,1.074396 -72.34908,1.659426 -100.5482,2.19338 -50.97212,0.965157 -72.95574,1.654588 -114.32893,3.585467 -30.44518,1.420871 -36.56187,1.668845 -50.35916,2.041595 -13.88391,0.375087 -54.21915,0.359932 -74.34783,-0.02794 z m 1.87146,-21.033633 c 1.99399,-0.757021 1.39451,-0.683799 19.73535,-2.4104 32.65831,-3.07444 32.51711,-3.067941 37.25897,-1.715085 3.694,1.053898 6.61671,1.178715 12.75993,0.544925 7.83561,-0.808392 11.39886,-1.779958 11.39886,-3.108038 0,-0.935708 -1.72211,-3.931653 -3.15108,-5.4819 -1.82553,-1.98047 -2.8021,-2.459987 -4.67983,-2.297901 -0.8395,0.07247 -3.58274,0.295535 -6.09609,0.495709 -7.93499,0.631977 -10.07587,1.319136 -13.25522,4.254542 l -1.9104,1.763819 -23.81853,2.263284 c -13.10019,1.244806 -25.35737,2.261221 -27.23818,2.2587 -3.40346,-0.0046 -4.2363,0.244195 -4.2363,1.265325 0,0.690615 0.94972,2.813291 1.25863,2.813097 0.14991,-9.5e-5 1.03816,-0.290831 1.97389,-0.646077 z"
   id="path16921" /><path
   style="fill:#7aaaaa;fill-opacity:1;stroke:none;stroke-width:0.986768"
   d="M 21.351607,27.986814 0,27.896588 V 13.948294 0 h 324.44234 324.44235 v 9.1185176 9.1185174 l -5.5293,-0.952125 C 603.19535,10.369502 559.56906,6.642212 531.92246,7.7644348 513.9407,8.4943443 508.35563,9.3084298 489.30625,13.976216 l -12.94237,3.171351 -3.65455,-0.596221 C 435.69929,10.513301 392.21415,6.3393744 349.96219,4.7694529 332.75185,4.1299819 298.34897,4.3934322 261.49338,5.4469293 217.49406,6.7046267 164.65483,9.1211723 146.30124,10.715119 131.10397,12.034949 98.842209,18.747763 72.598253,26.05075 l -7.87434,2.191216 -11.010348,-0.08246 C 47.657872,28.114148 33.094991,28.036438 21.351607,27.986814 Z"
   id="path16960" /><path
   style="fill:#7aaaaa;fill-opacity:1;stroke:none;stroke-width:0.174438"
   d="m 258.49832,24.56476 c -6.85247,-0.486869 -13.69301,-1.463743 -20.36106,-2.907693 -1.68788,-0.365507 -6.60249,-1.581408 -6.5128,-1.611304 0.0347,-0.01156 0.69543,0.101195 1.46836,0.250562 8.44228,1.631468 16.68988,2.511089 26.73192,2.851006 l 1.20611,0.04083 -0.23101,0.736848 -0.231,0.736848 -0.46383,-0.0079 c -0.2551,-0.0044 -0.97811,-0.04449 -1.60669,-0.08915 z"
   id="path16999" /><path
   style="fill:#7aaaaa;fill-opacity:1;stroke:none;stroke-width:0.174438"
   d="m 267.0182,24.195684 c -0.0751,-0.388725 -0.15031,-0.763847 -0.16715,-0.833605 -0.0305,-0.126314 -0.0229,-0.126999 1.8535,-0.167753 9.05141,-0.196589 16.34079,-0.782253 23.32788,-1.874275 0.51278,-0.08014 0.96034,-0.145993 0.99457,-0.146332 0.0891,-8.82e-4 -0.0572,1.684894 -0.15129,1.743036 -0.12749,0.07879 -4.81967,0.712355 -7.5501,1.019455 -5.39035,0.606269 -11.50534,0.964554 -16.48399,0.965818 l -1.68687,4.28e-4 z"
   id="path17038" /><path
   style="fill:#7aaaaa;fill-opacity:1;stroke:none;stroke-width:0.246692"
   d="m 299.19675,20.992787 c -0.19108,-0.433013 -0.33453,-0.800183 -0.31878,-0.815932 0.0157,-0.01575 0.99877,-0.233836 2.1845,-0.484636 10.05894,-2.127631 19.8903,-5.175948 28.40947,-8.808658 0.87143,-0.371592 1.61789,-0.675258 1.65879,-0.674813 0.11356,0.0012 -0.88611,0.623239 -2.35001,1.462202 -5.79598,3.321679 -13.20284,6.196175 -21.52174,8.352282 -1.70216,0.441168 -5.12596,1.22913 -6.50756,1.497665 -0.51465,0.100029 -0.99682,0.199268 -1.07149,0.220529 -0.10218,0.0291 -0.22167,-0.156041 -0.48318,-0.748639 z"
   id="path17077" /><path
   style="fill:#7aaaaa;fill-opacity:1;stroke:none;stroke-width:0.493384"
   d="m 772.74102,56.301084 c -6.40973,-0.45113 -18.0085,-1.24372 -25.77505,-1.761314 -10.54573,-0.702809 -14.57328,-1.030869 -15.90737,-1.295719 -3.50826,-0.696476 -14.45684,-3.242406 -17.9101,-4.164734 -4.38717,-1.171762 -5.78998,-1.653436 -23.26192,-7.987256 -22.77909,-8.257739 -32.53323,-11.299795 -45.26628,-14.117349 -12.84081,-2.841397 -23.07993,-4.10875 -34.69591,-4.294506 -6.33581,-0.101317 -10.10413,0.04069 -16.67297,0.628309 -10.41201,0.931414 -22.66245,0.930874 -46.53119,-0.0021 -11.00734,-0.430228 -12.94264,-0.529774 -28.32703,-1.457056 -26.87096,-1.619626 -24.7548,-1.444757 -30.70889,-2.537626 -2.90076,-0.532431 -5.40638,-1.018599 -5.56806,-1.080373 -0.25617,-0.09788 6.96945,-1.933077 17.90265,-4.547005 19.03683,-4.5513571 48.58167,-5.1298079 86.00189,-1.68381 31.28612,2.881114 67.89037,8.654062 90.17014,14.220956 8.81562,2.202702 11.90552,3.292186 13.95085,4.919022 1.94158,1.544315 7.45952,3.100274 15.68792,4.423718 3.55192,0.571286 8.68027,1.298334 16.80735,2.382788 20.59415,2.748022 28.81994,4.092675 36.89328,6.030875 4.44144,1.066277 13.81271,3.832707 22.52544,6.649595 l 4.46597,1.44388 v 2.546517 2.546515 l -1.06333,-0.02157 c -0.58483,-0.01186 -6.30765,-0.390676 -12.71739,-0.841806 z"
   id="path17116" /><path
   style="fill:#7aaaaa;fill-opacity:1;stroke:none;stroke-width:0.493384"
   d="m 785.50095,49.488877 c -3.56543,-1.276581 -15.71463,-5.000718 -21.3464,-6.543385 -9.07355,-2.485448 -18.28446,-4.097075 -39.30578,-6.87731 -24.44759,-3.233387 -30.98902,-4.593981 -33.93992,-7.059384 -0.9132,-0.762956 -1.50214,-1.065603 -3.58892,-1.844275 -3.23824,-1.208331 -10.31099,-3.080327 -18.35963,-4.859369 -3.71736,-0.821672 -15.06406,-3.088221 -18.41682,-3.678836 l -1.65879,-0.292207 V 9.1670557 0 h 68.81852 68.81853 v 24.924386 c 0,13.708412 -0.0191,24.918791 -0.0425,24.911954 -0.0234,-0.0068 -0.46361,-0.163195 -0.97826,-0.347463 z"
   id="path17155" /><path
   style="fill:#7aaaaa;fill-opacity:1;stroke:none;stroke-width:0.493384"
   d="m 647.8348,64.353837 1.07676,-0.06075 -0.056,-17.089866 c -0.0308,-9.399426 -0.0222,-17.08985 0.0191,-17.089832 0.25367,1.13e-4 7.19724,1.862755 10.40026,2.789911 9.62442,2.785919 16.9473,5.302689 34.94997,12.011804 14.12751,5.264945 17.74347,6.293391 35.89792,10.210025 10.34141,2.23105 14.76334,3.253639 17.65503,4.082796 2.59083,0.742888 4.77523,1.671851 4.93982,2.100763 0.6186,1.612057 -10.13246,2.314265 -35.5249,2.320316 -14.39828,0.0034 -36.08741,0.237258 -55.37807,0.59702 -12.81675,0.239026 -16.55718,0.273224 -13.97995,0.127814 z"
   id="path17194" /><path
   style="fill:#7aaaaa;fill-opacity:1;stroke:none;stroke-width:0.493384"
   d="M 792.5189,51.853031 786.52174,49.80173 V 24.900865 0 h 54.44234 54.44235 v 21.170009 c 0,20.014238 -0.0163,21.17492 -0.29773,21.259931 -0.16376,0.04946 -1.56097,0.367165 -3.10492,0.706014 -4.2622,0.935423 -10.78599,2.501995 -15.99244,3.840298 l -4.67864,1.202631 -5.75925,-0.211986 c -5.89564,-0.217007 -12.58281,-0.153296 -18.2294,0.173679 -1.68431,0.09753 -5.85681,0.331457 -9.27222,0.519833 -11.5513,0.637105 -15.2236,1.029103 -27.83542,2.971278 -3.98706,0.613992 -5.63124,0.939703 -9.11587,1.805847 -1.09401,0.271928 -2.12756,0.4882 -2.29679,0.480605 -0.16922,-0.0076 -3.0064,-0.936893 -6.30485,-2.065108 z"
   id="path17233" /><path
   style="fill:#7aaaaa;fill-opacity:1;stroke:none;stroke-width:0.493384"
   d="m 1009.0548,47.97696 -6.7202,-0.09661 -3.26236,-0.713773 c -9.38648,-2.053673 -12.66116,-2.798076 -21.2367,-4.827537 -5.1465,-1.217956 -10.94675,-2.589891 -12.88943,-3.048743 -4.71719,-1.114178 -10.1864,-2.257426 -13.31095,-2.782437 -5.1941,-0.872754 -6.76636,-1.014681 -11.3138,-1.021301 -4.67797,-0.0068 -4.44095,-0.03068 -15.22684,1.533477 -7.88892,1.144041 -16.42198,2.645451 -25.15756,4.426523 -2.51435,0.512645 -4.58146,0.90941 -4.59357,0.881703 -0.0121,-0.02771 -0.002,-9.562902 0.0218,-21.18932 L 895.40907,0 h 95.27278 95.27275 v 23.113909 23.113909 l -3.275,0.114541 c -9.7163,0.339819 -63.3778,1.799567 -64.9987,1.76815 -1.0482,-0.02032 -4.93,-0.08041 -8.6261,-0.133549 z"
   id="path17272" /><path
   style="fill:#7aaaaa;fill-opacity:1;stroke:none;stroke-width:0.493384"
   d="m 880.20466,48.502199 -1.16585,-0.09955 4.14316,-0.996661 c 17.66648,-4.249765 34.4572,-7.358886 51.09969,-9.462081 3.32588,-0.420308 8.15338,-0.456399 11.48394,-0.08586 5.96365,0.663492 10.45577,1.579446 26.71077,5.446389 5.28686,1.257705 11.75615,2.782772 14.37618,3.389037 l 4.76371,1.1023 -8.08129,-0.117963 c -4.4447,-0.06488 -23.12523,-0.119733 -41.51228,-0.121896 -33.74871,-0.004 -37.73804,0.05002 -49.33838,0.667681 -5.48261,0.291924 -10.90579,0.412993 -12.47965,0.278601 z"
   id="path17311" /><path
   style="fill:#7aaaaa;fill-opacity:1;stroke:none;stroke-width:0.493384"
   d="m 1157.4102,50.259939 c -13.0107,-0.70298 -36.8745,-2.173793 -55.2079,-3.402672 -9.2986,-0.623275 -12.0281,-0.753297 -13.9083,-0.662523 l -2.3394,0.112937 V 23.153841 0 h 81.6635 81.6636 v 20.303008 20.30301 l -12.8025,0.111843 c -14.293,0.124866 -24.7041,0.357363 -28.2845,0.631644 -9.4321,0.722557 -19.6919,2.691355 -37.6726,7.229142 -4.2512,1.072859 -8.0026,1.94072 -8.3365,1.928579 -0.3339,-0.01215 -2.4829,-0.123421 -4.7754,-0.247287 z"
   id="path17350" /><path
   style="fill:#7aaaaa;fill-opacity:1;stroke:none;stroke-width:0.493384"
   d="m 1262.3393,40.704174 -13.0576,-0.04466 V 20.329756 0 H 1344.6408 1440 v 14.206049 14.206049 l -55.5057,0.0015 c -36.1116,0.001 -56.1893,0.06175 -57.4622,0.174011 -9.0596,0.799016 -23.0413,4.1095 -44.9357,10.639596 -3.5535,1.059854 -5.6039,1.590523 -6.0397,1.563136 -0.3628,-0.0228 -6.5357,-0.06156 -13.7174,-0.08612 z"
   id="path17389" /><path
   style="fill:#7aaaaa;fill-opacity:1;stroke:none;stroke-width:0.493384"
   d="M 1199.603,64.925343 V 53.081286 h 20.9075 c 22.9189,0 21.3597,0.063 25.7938,-1.04218 2.8043,-0.698938 9.472,-2.637167 17.1834,-4.995059 33.0727,-10.112459 46.6735,-13.769144 57.845,-15.552156 5.7023,-0.910108 2.4122,-0.864668 62.7363,-0.866435 l 55.931,-0.0016 v 20.986295 20.986297 l -5.3166,0.114795 c -7.5327,0.162641 -62.992,1.160804 -123.984,2.231473 -24.0121,0.421514 -53.7727,0.912931 -76.8147,1.26839 -11.8838,0.183325 -24.4587,0.383947 -27.9442,0.445825 l -6.3375,0.112507 z"
   id="path17428" /><path
   style="fill:#7aaaaa;fill-opacity:1;stroke:none;stroke-width:0.493384"
   d="m 1174.6786,49.76392 c 15.3882,-3.87787 26.654,-5.886783 35.7278,-6.370926 7.6068,-0.405865 45.1128,-0.795426 54.2722,-0.563705 l 5.104,0.129123 -8.2514,2.501904 c -11.2173,3.401199 -14.9026,4.438544 -17.9757,5.059867 -1.7121,0.346155 -2.0578,0.349226 -37.4291,0.332486 l -35.7011,-0.0169 z"
   id="path17467" /><path
   style="fill:#7aaaaa;fill-opacity:1;stroke:none;stroke-width:0.493384"
   d="m 941.29962,79.514707 c -0.28063,-0.08281 -0.29773,-0.948382 -0.29773,-15.074069 V 49.45443 l 16.80057,0.112873 c 29.17096,0.195983 38.75487,0.294875 44.61724,0.460385 11.4894,0.32438 17.2925,0.208364 76.5595,-1.530575 l 11.1437,-0.326964 13.6956,0.918337 c 28.7813,1.929875 50.3108,3.214966 62.6021,3.736707 4.1342,0.175486 10.3058,0.256093 19.6078,0.256093 h 13.5746 v 11.804501 11.804501 l -5.6569,0.109555 c -11.6818,0.226237 -34.874,0.439627 -47.9348,0.441046 -38.7749,0.0042 -92.8785,0.790942 -111.4366,1.62042 -3.1347,0.140109 -8.5704,0.336336 -12.0794,0.436058 -6.4238,0.18256 -80.64035,0.381219 -81.19568,0.21734 z"
   id="path17506" /><path
   style="fill:#7aaaaa;fill-opacity:1;stroke:none;stroke-width:0.493384"
   d="m 921.09641,79.271813 c -3.22826,-0.06833 -8.16635,-0.22805 -10.97354,-0.354927 -4.09426,-0.185049 -13.66954,-0.215932 -48.40264,-0.156105 -88.25379,0.152017 -127.82209,0.114033 -128.23724,-0.123099 -2.09246,-1.1952 5.2863,-5.312989 16.4603,-9.185832 7.74903,-2.685767 13.4345,-4.316493 27.66919,-7.936171 6.06975,-1.543451 11.91635,-3.04272 12.99244,-3.331709 10.631,-2.855018 15.97976,-4.013104 23.61735,-5.113509 11.62939,-1.675536 14.61288,-1.93242 33.63217,-2.895805 5.58239,-0.282765 14.21658,-0.281044 19.56522,0.0039 5.93694,0.316285 22.03865,0.346252 26.71078,0.04971 6.26016,-0.397332 13.32078,-0.552775 30.15595,-0.663895 l 16.7155,-0.11033 v 14.729763 c 0,8.10137 0.0465,14.850865 0.10327,14.998876 0.0933,0.243026 -0.58709,0.266412 -7.01796,0.241243 -3.91668,-0.01533 -9.76253,-0.08378 -12.99079,-0.152112 z"
   id="path17545" /><path
   style="fill:#f7d3b0;fill-opacity:1;stroke:none;stroke-width:0.493384"
   d="m 786.52174,54.601677 v -2.530258 l 4.08318,1.395789 c 2.24574,0.767684 4.08317,1.439545 4.08317,1.493025 0,0.05348 -1.83743,0.56399 -4.08317,1.134469 l -4.08318,1.037234 z"
   id="path17584" /><metadata
   id="metadata17623"><rdf:RDF><cc:Work
       rdf:about=""><dc:title>Group 4</dc:title></cc:Work></rdf:RDF></metadata><path
   style="fill:#f7d3b0;fill-opacity:1;stroke:none;stroke-width:5.582"
   d="M 0,79.998283 V 65.680016 l 8.848197,-1.326869 c 15.856699,-2.377859 113.472693,0.675517 153.799733,4.810773 51.01811,5.231551 140.07041,7.084244 199.21965,4.144675 53.75057,-2.67127 257.74347,-7.765648 313.74688,-7.8353 48.6842,-0.06055 77.36943,-1.787457 76.43146,-4.601327 -0.3774,-1.132198 -2.7874,-2.618753 -5.35554,-3.303455 -2.56815,-0.684702 0.96075,-1.013288 7.84201,-0.730192 6.88126,0.283097 16.84224,0.681577 22.13552,0.885512 l 9.62414,0.370791 -10.58655,2.793055 c -32.48603,8.570804 -49.40869,16.289584 -41.00393,18.70274 9.61946,2.76192 550.79733,-1.709158 669.94133,-5.534891 L 1439.771,72.92756 V 83.622055 94.316549 H 719.8855 0 Z"
   id="path22386" /><path
   style="fill:#ffe9d7;fill-opacity:1;stroke:none;stroke-width:5.582"
   d="M 0,79.998283 V 65.680016 L 8.7735237,64.364344 C 24.507458,62.004895 120.67955,64.950219 163.61034,69.106308 c 54.49733,5.275836 136.76737,7.069048 195.36999,4.258413 53.83389,-2.581922 159.19437,-5.3897 258.88931,-6.899207 85.50575,-1.294665 131.00819,-2.79312 133.60799,-4.399887 1.07342,-0.663416 -0.61519,-2.297232 -3.75247,-3.630703 -5.24486,-2.22928 -4.69677,-2.371635 6.80723,-1.768013 6.88126,0.361064 16.84224,0.814769 22.13552,1.008234 l 9.62414,0.351755 -17.3206,4.748926 c -19.66562,5.39188 -38.81825,13.577684 -36.70718,15.688596 3.50177,3.501481 552.51333,-0.153717 673.34103,-4.482954 l 34.1657,-1.224152 V 83.536934 94.316549 H 719.8855 0 Z"
   id="path22425" /><path
   style="fill:#ffe9d7;fill-opacity:1;stroke:none;stroke-width:1.3955"
   d="m 252.9257,51.209177 c -0.16065,-0.418643 -0.29209,-0.820225 -0.29209,-0.892405 0,-0.07218 2.65266,-0.260643 5.89479,-0.418805 3.24213,-0.158161 10.33392,-0.725107 15.75952,-1.259879 5.42561,-0.534771 15.06178,-1.439551 21.41371,-2.01062 l 11.54897,-1.038309 1.92482,-1.809753 c 3.42585,-3.221036 5.90623,-3.934924 16.02081,-4.611005 l 4.95306,-0.331074 1.44269,1.382191 c 0.79348,0.760205 1.95463,2.298133 2.58032,3.417618 1.61002,2.880645 1.34372,3.021914 -8.02611,4.257731 -7.17311,0.946084 -9.58975,0.893214 -13.85259,-0.303058 -2.05583,-0.57692 -4.85949,-0.987801 -6.53778,-0.95812 -5.36836,0.09494 -49.73289,4.329211 -50.68215,4.837242 -1.28893,0.689814 -1.80705,0.626676 -2.14797,-0.261754 z m 77.66933,-8.851943 c -0.88895,-1.661028 -2.28626,-2.06128 -5.96366,-1.708264 -1.88418,0.180874 -4.83331,0.610933 -6.55362,0.955689 l -3.12784,0.626827 6.25568,0.114294 c 3.44063,0.06286 6.90532,0.279596 7.69931,0.481633 2.19764,0.559203 2.23542,0.548695 1.69013,-0.470179 z"
   id="path22579" /><path
   style="fill:#ffe9d7;fill-opacity:1;stroke:none;stroke-width:0.348875"
   d="m 564.27522,25.8559 c -9.94701,-0.17621 -28.62851,-1.01833 -46.49661,-2.095962 -1.62107,-0.09777 -4.76094,-0.2867 -6.9775,-0.419851 -2.21656,-0.13315 -11.44671,-0.701176 -20.51145,-1.262279 -50.76324,-3.14222 -70.52204,-4.118715 -98.76771,-4.881174 -7.62044,-0.205704 -30.23587,-0.282308 -37.35368,-0.126526 -6.50129,0.142289 -11.11279,0.293541 -15.08984,0.494926 -1.25273,0.06343 -2.30299,0.09004 -2.33391,0.05912 -0.0699,-0.06992 0.18195,-1.625477 0.27889,-1.722416 0.18888,-0.188878 8.9907,-0.491279 18.28772,-0.628304 9.88998,-0.145766 34.15283,0.02415 43.00787,0.30118 20.51933,0.641959 34.34938,1.307243 68.9267,3.315663 4.52896,0.263065 8.42674,0.472597 8.66172,0.465627 0.5007,-0.01485 -2.59922,-0.561322 -8.41493,-1.483429 -28.80255,-4.56677 -60.52448,-7.8986005 -93.95565,-9.8683871 -13.76271,-0.8109083 -27.87783,-1.3841715 -34.14048,-1.3865616 -2.29634,-8.764e-4 -2.46139,-0.01602 -2.78539,-0.2555623 -0.67024,-0.4955303 -2.16059,-0.5171102 -3.48328,-0.050437 -0.448,0.1580627 -1.53862,0.184766 -7.54621,0.184766 h -7.02252 V 5.5338792 4.5714654 l 5.1429,0.0021 c 10.73264,0.00437 23.08557,0.2409329 31.42882,0.6018642 42.09304,1.8209561 82.43656,5.8079024 117.40047,11.6020954 1.81186,0.30026 3.46888,0.545927 3.68229,0.545927 0.21341,0 2.06033,-0.408884 4.10427,-0.908631 2.04395,-0.499748 7.5599,-1.850294 12.25769,-3.001215 9.25743,-2.268001 10.87456,-2.626997 14.61666,-3.244851 10.06262,-1.6614301 20.66028,-2.378552 35.1281,-2.377047 10.38919,0.00108 22.04157,0.4370565 31.72958,1.1871678 l 0.99249,0.076845 v 0.9554452 0.955445 l -0.75189,-0.07154 c -1.19048,-0.11327 -5.86117,-0.409433 -9.53391,-0.604535 -23.90119,-1.2696725 -43.18146,-0.665502 -57.6536,1.806645 -1.33931,0.228782 -3.22801,0.580858 -4.1971,0.78239 -1.47923,0.307621 -20.90547,5.021938 -21.6387,5.251232 -0.14621,0.04572 0.37294,0.18654 1.32332,0.358944 0.86016,0.156037 3.59402,0.661112 6.07524,1.122389 l 4.51132,0.838686 10.70685,0.659361 c 28.45424,1.752301 30.5581,1.865416 44.75224,2.406143 9.92855,0.37823 14.69592,0.517575 21.20318,0.619748 l 5.20305,0.08169 v 0.883703 0.883704 l -2.85717,-0.01988 c -1.57144,-0.01093 -5.13087,-0.06016 -7.90984,-0.109389 z"
   id="path22618" /><path
   style="fill:#ffe9d7;fill-opacity:1;stroke:none;stroke-width:0.246692"
   d="m 333.62949,73.894152 v -0.370618 l 2.10539,-0.05815 c 6.89704,-0.190494 18.01321,-0.663878 38.21597,-1.627433 40.65492,-1.939004 64.36953,-2.740057 101.9518,-3.443816 32.40637,-0.606837 35.88005,-0.674136 37.49291,-0.726395 l 1.59499,-0.05168 v 0.388568 c 0,0.330007 -0.0253,0.388567 -0.16774,0.388567 -0.0923,0 -1.69044,0.03812 -3.55151,0.08472 -3.47081,0.0869 -9.90143,0.244131 -19.20608,0.469606 -49.73459,1.20519 -96.7138,2.738511 -130.2363,4.250688 -12.58841,0.567855 -19.44725,0.823656 -25.13705,0.937489 -1.33341,0.02668 -2.56793,0.06663 -2.74338,0.08879 l -0.319,0.04029 z"
   id="path22657" /><path
   style="fill:#ffe9d7;fill-opacity:1;stroke:none;stroke-width:0.493384"
   d="m 50.529301,29.26276 v -0.850662 h 7.199596 c 6.492204,0 7.31548,-0.03119 8.379017,-0.317439 0.648682,-0.174592 3.859005,-1.062205 7.134052,-1.972474 20.838047,-5.791738 44.082624,-10.903965 63.799624,-14.031582 6.7148,-1.065138 12.20203,-1.524831 30.53875,-2.5583888 42.88171,-2.4170468 95.756,-4.2071392 143.46408,-4.8570671 l 7.44329,-0.1014 V 5.497189 6.420631 l -8.88941,0.1139111 c -48.93038,0.6270055 -114.82648,3.0054028 -153.75709,5.5495759 -11.04973,0.722116 -12.91626,0.914316 -19.87791,2.046873 -19.69999,3.204894 -39.492181,7.556118 -61.146091,13.442697 -1.472936,0.400415 -2.651714,0.754377 -2.61951,0.786581 0.09366,0.09366 49.918061,-0.269581 62.717231,-0.457237 30.3629,-0.445172 67.85534,-1.437625 81.09683,-2.146698 l 2.07036,-0.110865 0.11932,0.795711 c 0.0656,0.437642 0.0757,0.839326 0.0224,0.892635 -0.0533,0.05331 -3.60341,0.236947 -7.88912,0.408088 -37.84303,1.511178 -87.52047,2.365344 -137.815816,2.36964 l -21.989603,0.0019 z"
   id="path22696" /><path
   style="fill:#ffe9d7;fill-opacity:1;stroke:none;stroke-width:0.69775"
   d="m 752.84817,67.981254 c 0,-0.37296 12.89388,-4.242979 26.57218,-7.975477 8.26825,-2.256216 8.49173,-2.084206 -3.23365,-2.48887 -4.30078,-0.148426 -12.16399,-0.486921 -17.47379,-0.75221 -10.32067,-0.515645 -14.06451,-0.530707 -14.22137,-0.05721 -0.0547,0.165106 0.82493,0.717924 2.08115,1.307939 1.19673,0.562079 2.14541,1.052431 2.10817,1.089671 -0.0372,0.03724 -1.74042,-0.352209 -3.78483,-0.865448 -2.04442,-0.513241 -7.50663,-1.751208 -12.13825,-2.751043 -20.36214,-4.395613 -23.19713,-5.163732 -34.8875,-9.452515 -3.44063,-1.262244 -9.50383,-3.485595 -13.47379,-4.940782 C 656.08092,30.71625 635.96788,25.973704 615.1027,24.756202 c -5.73096,-0.334406 -16.15758,-0.150514 -21.53401,0.379791 -2.05114,0.202315 -5.56997,0.423242 -7.81961,0.490949 -2.24964,0.06771 -5.57899,0.173982 -7.39856,0.236168 l -3.30829,0.113065 v -0.837614 -0.837613 l 1.38347,-0.0039 c 3.6087,-0.01024 13.80419,-0.516016 17.14299,-0.850428 5.13984,-0.514804 17.83704,-0.718481 23.09793,-0.370517 16.58945,1.097257 33.40717,4.659719 54.25608,11.492951 1.85264,0.607204 8.67375,3.027922 15.15801,5.379369 24.67922,8.949654 25.19562,9.111387 38.73422,12.131514 6.61029,1.474593 7.60805,1.635081 12.1439,1.953344 20.3621,1.428727 47.41295,3.230363 48.50266,3.230363 0.77027,0 3.18577,-0.466672 5.79587,-1.119759 l 4.47519,-1.119758 -3.33678,-1.171578 C 787.82746,52.248566 774.41072,47.953345 768.8483,46.314087 757.08721,42.848065 748.77814,41.263744 727.2239,38.37741 699.65516,34.68567 693.24012,33.375252 689.98526,30.770563 688.28615,29.410858 684.67036,28.13898 677.08895,26.234202 653.10421,20.208194 609.38196,13.474489 580.2152,11.314584 574.85392,10.917561 575.04223,10.967267 575.04223,9.9491231 V 9.0928464 l 1.98497,0.16187 c 35.38958,2.8859316 74.7036,8.8299396 99.57095,15.0544386 8.6518,2.165616 12.44082,3.489986 14.34407,5.013656 2.90487,2.325532 9.60067,3.702365 33.51474,6.89151 24.79242,3.306281 32.35149,4.723383 44.87255,8.412266 6.57184,1.93616 16.58979,5.144489 23.43467,7.505139 l 5.91895,2.041316 3.72935,-0.851147 c 3.02579,-0.690575 10.90285,-2.073362 11.81094,-2.073362 0.12057,0 0.21923,0.361516 0.21923,0.803373 v 0.80337 l -2.10528,0.301057 c -3.79589,0.542818 -10.43454,1.920579 -15.57907,3.233215 -30.12698,7.686967 -32.99818,8.446627 -39.72859,10.511346 -3.95508,1.21332 -4.18154,1.271827 -4.18154,1.08036 z"
   id="path22735" /><path
   style="fill:#ffe9d7;fill-opacity:1;stroke:none;stroke-width:0.69775"
   d="m 814.44265,52.050885 c 0,-0.93431 -0.26406,-0.847155 4.57147,-1.508863 6.58981,-0.901771 10.36157,-1.224357 21.32596,-1.823933 13.26641,-0.72546 17.33581,-0.820323 24.16982,-0.563431 l 6.63832,0.249537 7.19638,-1.810046 c 18.70369,-4.704391 36.02758,-8.031813 54.09655,-10.390399 10.50016,-1.370611 15.83351,-0.692921 40.07796,5.092569 10.80948,2.579482 19.77938,4.618515 25.62427,5.824894 l 4.57142,0.943546 9.143,0.133503 c 7.4399,0.108637 15.651,-0.05421 44.0841,-0.874298 l 34.9412,-1.007801 17.0292,1.126182 c 9.366,0.619401 17.3268,1.133691 17.6908,1.142867 0.5926,0.01494 0.6616,0.104575 0.6616,0.858795 v 0.842112 l -1.1429,-0.01028 c -0.6285,-0.0057 -8.7247,-0.522073 -17.9916,-1.147594 l -16.8487,-1.137311 -35.2419,1.011654 c -22.377,0.642353 -37.8769,0.98405 -42.46,0.936037 -3.97,-0.04159 -19.18212,-0.209953 -33.8048,-0.374141 -30.43534,-0.341739 -72.55015,-0.194557 -80.60215,0.281686 -5.77603,0.341628 -21.97573,0.382463 -36.69203,0.09249 -8.37444,-0.165012 -10.8582,-0.12307 -19.12797,0.323001 -11.62587,0.6271 -16.70791,1.049713 -23.03778,1.915781 l -4.87222,0.666629 z m 79.63974,-3.694094 c 8.72724,-0.568777 28.56231,-0.77043 63.0381,-0.640877 19.51896,0.07335 35.38074,0.08956 35.24841,0.03602 -0.13234,-0.05354 -1.97295,-0.48672 -4.09026,-0.962631 -2.11731,-0.475912 -9.04669,-2.094527 -15.39862,-3.596922 -14.14441,-3.345517 -17.28365,-4.031856 -21.92583,-4.793685 -5.09136,-0.835543 -9.38755,-1.18816 -12.48046,-1.024355 -5.88736,0.311804 -23.40591,3.022894 -36.21082,5.603823 -11.59193,2.336442 -24.51989,5.40558 -23.90312,5.674678 0.51728,0.225691 10.6424,0.03504 15.7226,-0.296053 z"
   id="path22774" /><path
   style="fill:#ffe9d7;fill-opacity:1;stroke:none;stroke-width:0.348875"
   d="m 1168.6711,52.803043 c -10.9373,-0.42837 -45.9145,-2.453935 -43.2086,-2.502248 l 0.822,-0.01468 -0.04,-0.842383 -0.04,-0.842383 0.4812,6.98e-4 c 0.2646,3.85e-4 1.6992,0.08064 3.188,0.178355 6.4476,0.423188 22.7123,1.35734 30.448,1.748761 l 2.5982,0.131468 5.8831,-1.506165 c 19.5555,-5.006563 30.8579,-7.156274 40.8307,-7.766024 6.0954,-0.372682 26.8198,-0.626077 48.4816,-0.59278 l 19.1881,0.0295 3.4286,-1.033442 c 4.786,-1.442568 5.9212,-1.776375 6.0412,-1.776375 0.057,0 0.088,0.412551 0.069,0.91678 l -0.035,0.916781 -0.7219,0.215457 c -0.3969,0.118501 -3.0225,0.902289 -5.8346,1.741752 -2.812,0.839462 -8.0903,2.436697 -11.7294,3.549411 -16.1501,4.938118 -20.7776,6.272867 -25.0829,7.234839 l -1.2632,0.282242 -35.5491,0.01234 c -19.5521,0.0068 -36.6319,-0.03007 -37.9552,-0.0819 z m 75.7901,-2.297012 c 4.0579,-0.98731 9.4145,-2.535158 20.3715,-5.886551 l 6.0556,-1.852218 -7.3789,-0.09625 c -11.6373,-0.151795 -42.3087,0.155557 -51.6713,0.517788 -10.0052,0.387094 -20.8201,2.301391 -39.3174,6.959385 -1.5218,0.383226 -2.6857,0.729443 -2.5865,0.769374 0.099,0.03993 16.5024,0.06246 36.4515,0.05006 l 36.2709,-0.02254 z"
   id="path22813" /><path
   style="fill:#ffe9d7;fill-opacity:1;stroke:none;stroke-width:0.348875"
   d="m 1286.8675,38.892238 v -0.953374 l 5.3835,-1.523351 c 6.8424,-1.936174 9.4045,-2.619333 14.767,-3.937512 10.3863,-2.553069 16.6689,-3.63375 22.3762,-3.848954 1.588,-0.05988 19.8723,-0.110819 40.6319,-0.113204 l 37.7446,-0.0043 v 0.960001 0.960001 l -40.271,0.03964 c -36.7603,0.03619 -40.4037,0.05713 -41.7939,0.240218 -9.1786,1.208805 -18.4194,3.314378 -34.2668,7.807917 -2.3489,0.666028 -4.3384,1.236917 -4.4211,1.268642 -0.1125,0.04315 -0.1504,-0.182431 -0.1504,-0.895692 z"
   id="path22852" /><path
   style="fill:#ffe9d7;fill-opacity:1;stroke:none;stroke-width:0.348875"
   d="m 1151.2875,77.714912 v -0.360905 h 4.8583 c 9.1788,0 54.0507,-0.594569 90.7214,-1.202091 4.0361,-0.06687 12.2918,-0.202285 18.346,-0.300931 6.0542,-0.09864 14.1475,-0.23424 17.9851,-0.30132 3.8376,-0.06708 11.7685,-0.203327 17.6242,-0.302768 19.8047,-0.336325 73.8977,-1.294749 91.6098,-1.62315 16.3152,-0.302501 15.3384,-0.302559 15.3384,9.06e-4 0,0.148796 -0.08,0.240753 -0.2105,0.240995 -0.1158,2.15e-4 -2.5113,0.08027 -5.3233,0.177904 -9.7899,0.339894 -28.4298,0.817575 -46.9779,1.203888 -39.2518,0.817527 -102.4677,1.744094 -164.272,2.407766 -9.2963,0.09983 -21.7204,0.235181 -27.6092,0.300789 -5.8888,0.06561 -11.0181,0.119407 -11.3986,0.119554 -0.6884,2.67e-4 -0.6917,-0.0014 -0.6917,-0.360637 z"
   id="path22891" /><path
   style="fill:#ffe9d7;fill-opacity:1;stroke:none;stroke-width:0.986768"
   d="M 1408.0151,29.432892 V 28.582231 H 1424.0076 1440 v 0.850661 0.850662 h -15.9924 -15.9925 z"
   id="path22930" /><path
   style="fill:#ffe9d7;fill-opacity:1;stroke:none;stroke-width:0.69775"
   d="M 6.5564438,29.895154 0.24060344,29.826837 0.24042092,28.928569 0.2402384,28.030301 14.255571,28.177942 c 7.708434,0.0812 19.022893,0.162407 25.143243,0.180453 l 11.127909,0.03281 v 0.842112 0.842112 L 31.699503,30.01945 C 21.344533,29.988661 10.030156,29.932728 6.5564438,29.895154 Z"
   id="path22969" /><path
   style="fill:#ffe9d7;fill-opacity:1;stroke:none;stroke-width:0.69775"
   d="M 165.17426,69.163684 C 130.71629,65.989532 76.936461,63.609369 36.812327,63.482699 l -13.112888,-0.0414 12.751982,-0.211636 c 15.69868,-0.26054 60.964223,-0.07549 67.850169,0.277382 5.59114,0.286516 16.26043,1.155431 34.28599,2.792276 13.13241,1.192513 36.65706,3.435341 37.41384,3.567017 1.82087,0.316823 -3.52881,-0.03036 -10.82716,-0.702658 z"
   id="path23008" /><path
   style="fill:#ffe9d7;fill-opacity:1;stroke:none;stroke-width:0.69775"
   d="m 0,64.675087 v -0.915175 l 2.8270904,-5.21e-4 c 1.5548998,-2.87e-4 5.5338792,-0.04753 8.8421766,-0.104989 5.584368,-0.09699 5.756655,-0.08804 2.406034,0.124883 -1.984978,0.126142 -5.9639575,0.585216 -8.8421761,1.020163 L 0,65.590262 Z"
   id="path23047" /><path
   style="fill:#ffe9d7;fill-opacity:1;stroke:none;stroke-width:0.174438"
   d="m 218.48237,17.925539 c -0.77218,-0.489882 -1.06102,-1.411517 -0.67778,-2.162721 0.17616,-0.345305 0.45623,-0.528493 1.02975,-0.673523 0.66146,-0.167268 1.61112,-0.134689 2.26384,0.07766 l 0.43475,0.141438 -0.4517,0.511282 c -0.24844,0.281206 -0.48861,0.50398 -0.53372,0.495055 -0.0452,-0.0089 -0.11044,0.06534 -0.1453,0.165339 -0.0705,0.202345 -1.37003,1.685817 -1.47595,1.684918 -0.0371,-3.12e-4 -0.2368,-0.108066 -0.44389,-0.239449 z"
   id="path23086" /><path
   style="fill:#ffe9d7;fill-opacity:1;stroke:none;stroke-width:0.174438"
   d="m 224.06196,17.469881 c -0.38046,-0.113924 -1.17008,-0.359941 -1.75472,-0.546705 l -1.06298,-0.339571 0.51745,-0.577455 0.51746,-0.577454 0.60567,0.111256 c 0.541,0.09938 2.78205,0.653075 3.06116,0.756323 0.0924,0.03417 0.0173,0.144406 -0.47596,0.699283 -0.32209,0.362296 -0.61503,0.663835 -0.65098,0.670088 -0.036,0.0063 -0.37665,-0.08184 -0.7571,-0.195765 z"
   id="path23125" /><path
   style="fill:#ffe9d7;fill-opacity:1;stroke:none;stroke-width:0.174438"
   d="m 221.65592,19.485364 c -0.57895,-0.262275 -1.28962,-0.592089 -1.57926,-0.732919 l -0.52663,-0.256055 0.39986,-0.451132 c 0.21991,-0.248122 0.50272,-0.563884 0.62844,-0.701693 l 0.22859,-0.250561 1.1012,0.437392 c 0.60566,0.240566 1.36496,0.52926 1.68734,0.641542 0.32239,0.112283 0.57932,0.225095 0.57096,0.250695 -0.0356,0.108901 -1.33301,1.547098 -1.39249,1.543524 -0.036,-0.0022 -0.53906,-0.218517 -1.11801,-0.480793 z"
   id="path23164" /><path
   style="fill:#ffe9d7;fill-opacity:1;stroke:none;stroke-width:0.174438"
   d="m 226.19731,21.317178 c -1.75073,-0.644537 -2.73751,-1.056801 -2.69567,-1.126216 0.067,-0.111159 1.35458,-1.544195 1.38745,-1.544195 0.0162,0 0.69616,0.218753 1.51097,0.486118 0.81481,0.267365 1.62088,0.531277 1.79127,0.586471 l 0.3098,0.100353 -0.74504,0.838251 c -0.40977,0.461038 -0.76572,0.85776 -0.791,0.881603 -0.0253,0.02384 -0.37078,-0.07623 -0.76778,-0.222385 z"
   id="path23203" /><path
   style="fill:#ffe9d7;fill-opacity:1;stroke:none;stroke-width:0.174438"
   d="m 227.38399,18.361594 c -1.00147,-0.252409 -1.81351,-0.479561 -1.80452,-0.504782 0.009,-0.02522 0.27848,-0.341248 0.59887,-0.702281 l 0.58255,-0.656422 1.19191,0.286932 c 0.65554,0.157813 1.52565,0.364518 1.93355,0.459345 l 0.74165,0.172412 -0.61154,0.690173 c -0.33635,0.379595 -0.65656,0.695432 -0.71157,0.70186 -0.055,0.0064 -0.91942,-0.194829 -1.9209,-0.447237 z"
   id="path23242" /><path
   style="fill:#ffe9d7;fill-opacity:1;stroke:none;stroke-width:0.174438"
   d="m 232.36277,19.481992 c -0.77745,-0.161207 -1.6101,-0.336665 -1.85034,-0.389906 l -0.43679,-0.0968 0.37664,-0.42595 c 0.20716,-0.234273 0.49845,-0.554297 0.64733,-0.711165 l 0.27068,-0.285215 1.85745,0.376242 1.85746,0.376243 -0.55632,0.626833 c -0.30597,0.344759 -0.60047,0.670932 -0.65444,0.724829 -0.0907,0.09057 -0.20529,0.07577 -1.51167,-0.195108 z"
   id="path23281" /><path
   style="fill:#ffe9d7;fill-opacity:1;stroke:none;stroke-width:0.174438"
   d="m 230.64847,22.817463 c -0.8463,-0.256561 -3.03761,-0.992884 -3.03761,-1.020697 0,-0.01759 0.3297,-0.401959 0.73266,-0.854146 0.40297,-0.452186 0.75226,-0.845285 0.77622,-0.873553 0.0351,-0.04144 3.03045,0.75419 3.44594,0.915326 0.0962,0.03731 -0.007,0.179632 -0.70845,0.973354 -0.45161,0.511311 -0.84067,0.934434 -0.86456,0.940274 -0.0239,0.0058 -0.17878,-0.03041 -0.3442,-0.08056 z"
   id="path23320" /><path
   style="fill:#ffe9d7;fill-opacity:1;stroke:none;stroke-width:0.174438"
   d="m 234.91919,24.025086 c -1.37439,-0.371331 -3.19009,-0.879997 -3.2097,-0.899187 -0.0119,-0.01168 0.36055,-0.451492 0.82775,-0.977356 l 0.84945,-0.956115 1.81889,0.441842 c 1.00039,0.243013 1.89042,0.461975 1.97785,0.486582 0.15497,0.04361 0.13674,0.06959 -0.72502,1.033286 -0.48619,0.5437 -0.9096,0.994995 -0.94092,1.002879 -0.0313,0.0079 -0.30056,-0.05148 -0.5983,-0.131931 z"
   id="path23359" /><path
   style="fill:#ffe9d7;fill-opacity:1;stroke:none;stroke-width:0.174438"
   d="m 236.78386,20.295804 c -1.05865,-0.177681 -1.99934,-0.339357 -2.09041,-0.359279 -0.16337,-0.03574 -0.15707,-0.04578 0.4731,-0.753217 0.35128,-0.394346 0.65127,-0.716994 0.66666,-0.716994 0.0385,0 4.06691,0.664235 4.12576,0.68028 0.0351,0.0096 -0.90473,1.120992 -1.21224,1.433596 -0.0209,0.02127 -0.90421,-0.106705 -1.96287,-0.284386 z"
   id="path23398" /><path
   style="fill:#ffe9d7;fill-opacity:1;stroke:none;stroke-width:0.174438"
   d="m 242.46812,21.145201 c -0.54587,-0.07439 -1.44486,-0.19758 -1.99776,-0.273745 l -1.00526,-0.138481 0.37368,-0.423228 c 0.20552,-0.232775 0.50902,-0.564934 0.67444,-0.73813 l 0.30075,-0.314901 1.77445,0.236118 c 0.97595,0.129865 1.9078,0.256539 2.07078,0.281496 l 0.29632,0.04538 -0.65377,0.736848 c -0.35958,0.405266 -0.69593,0.733936 -0.74746,0.730378 -0.0515,-0.0036 -0.5403,-0.06734 -1.08617,-0.141735 z"
   id="path23437" /><path
   style="fill:#ffe9d7;fill-opacity:1;stroke:none;stroke-width:0.174438"
   d="m 239.58088,25.13171 c -1.02206,-0.221332 -3.17168,-0.729734 -3.2358,-0.76529 -0.12031,-0.06672 1.63757,-2.022228 1.81094,-2.014535 0.15077,0.0067 3.78993,0.747448 3.82178,0.777929 0.0115,0.01103 -0.39111,0.48206 -0.89474,1.046728 -0.99533,1.115948 -0.93548,1.077891 -1.50218,0.955168 z"
   id="path23476" /><path
   style="fill:#ffe9d7;fill-opacity:1;stroke:none;stroke-width:0.174438"
   d="m 242.79895,25.764185 c -0.99249,-0.18297 -1.82666,-0.353394 -1.85372,-0.37872 -0.0671,-0.0628 1.75757,-2.107694 1.878,-2.104673 0.17734,0.0044 3.85452,0.638268 3.88608,0.669826 0.0172,0.01715 -0.39269,0.509013 -0.91076,1.093022 -0.6759,0.76193 -0.97769,1.060617 -1.06851,1.057526 -0.0696,-0.0024 -0.9386,-0.15401 -1.93109,-0.336981 z"
   id="path23515" /><path
   style="fill:#ffe9d7;fill-opacity:1;stroke:none;stroke-width:0.174438"
   d="m 248.1223,21.770016 c -0.24812,-0.02703 -1.16843,-0.121995 -2.04513,-0.211042 -0.8767,-0.08905 -1.60434,-0.170764 -1.61699,-0.181593 -0.0327,-0.02801 1.20449,-1.414355 1.29225,-1.44803 0.04,-0.01534 0.74518,0.04062 1.56714,0.124352 0.82195,0.08373 1.74484,0.170724 2.05086,0.193318 0.30602,0.02259 0.5564,0.06558 0.5564,0.09553 0,0.06646 -1.26904,1.49537 -1.31833,1.484403 -0.0193,-0.0043 -0.23808,-0.02992 -0.4862,-0.05694 z"
   id="path23554" /><path
   style="fill:#ffe9d7;fill-opacity:1;stroke:none;stroke-width:0.174438"
   d="m 251.82158,22.076453 c -0.76091,-0.05785 -1.60632,-0.125141 -1.87868,-0.149532 l -0.49521,-0.04434 0.64363,-0.722551 c 0.354,-0.397403 0.67772,-0.73563 0.71938,-0.751616 0.0417,-0.01599 0.6651,0.01366 1.38542,0.06588 0.72033,0.05222 1.66833,0.113058 2.10668,0.135196 0.43835,0.02214 0.797,0.06164 0.797,0.08778 0,0.02614 -0.28942,0.373972 -0.64317,0.772965 l -0.64316,0.725444 -0.30421,-0.007 c -0.16732,-0.0039 -0.92677,-0.05435 -1.68768,-0.1122 z"
   id="path23593" /><path
   style="fill:#ffe9d7;fill-opacity:1;stroke:none;stroke-width:0.174438"
   d=""
   id="path23632" /><path
   style="fill:#ffe9d7;fill-opacity:1;stroke:none;stroke-width:0.174438"
   d="m 253.77648,27.275383 c -2.95014,-0.293067 -3.31311,-0.342818 -3.22881,-0.442565 0.0445,-0.05267 0.4946,-0.56241 1.00019,-1.132758 0.75038,-0.846494 0.94283,-1.031734 1.04761,-1.008344 0.0706,0.01576 0.87274,0.09766 1.78252,0.181994 0.90978,0.08434 1.80605,0.172675 1.99172,0.196307 l 0.33756,0.04297 -0.99023,1.112791 c -0.54462,0.612035 -1.02134,1.116725 -1.05937,1.121533 -0.038,0.0048 -0.43457,-0.02756 -0.88119,-0.07193 z"
   id="path23671" /><path
   style="fill:#ffe9d7;fill-opacity:1;stroke:none;stroke-width:0.174438"
   d="m 247.61102,26.548848 c -1.02557,-0.147128 -1.9002,-0.279807 -1.94362,-0.294842 -0.0487,-0.01686 0.29483,-0.444926 0.89655,-1.117169 l 0.97549,-1.089831 0.24632,0.03431 c 0.13547,0.01887 1.00421,0.132191 1.93054,0.251827 0.92632,0.119636 1.74535,0.229576 1.82005,0.244311 0.11982,0.02363 0.0183,0.157843 -0.86119,1.138313 -0.58223,0.649097 -1.03913,1.109247 -1.09824,1.106055 -0.0557,-0.003 -0.94033,-0.125843 -1.9659,-0.27297 z"
   id="path23710" /><path
   style="fill:#ffe9d7;fill-opacity:1;stroke:none;stroke-width:0.174438"
   d="m 257.18458,27.545296 c -0.8549,-0.06057 -1.57859,-0.118325 -1.60821,-0.12835 -0.0429,-0.01451 1.4368,-1.739112 1.85829,-2.165871 0.0917,-0.09285 0.17869,-0.09674 0.92275,-0.04132 0.45183,0.03366 1.43623,0.09332 2.18755,0.132588 l 1.36606,0.07139 -1.0036,1.127828 -1.0036,1.127829 -0.58245,-0.007 c -0.32034,-0.0038 -1.2819,-0.05654 -2.13679,-0.11711 z"
   id="path23749" /><path
   style="fill:#ffe9d7;fill-opacity:1;stroke:none;stroke-width:0.174438"
   d="m 262.09156,27.789021 c -0.70344,-0.02254 -1.29527,-0.05727 -1.31518,-0.07717 -0.0199,-0.01991 0.40842,-0.531592 0.95184,-1.137077 l 0.98804,-1.100882 1.25948,0.02353 c 0.69271,0.01294 1.7109,0.04001 2.26264,0.06015 l 1.00317,0.03662 -0.99973,1.127829 -0.99974,1.127828 -0.93577,-0.0099 c -0.51467,-0.0055 -1.51131,-0.02837 -2.21475,-0.0509 z"
   id="path23788" /><path
   style="fill:#ffe9d7;fill-opacity:1;stroke:none;stroke-width:0.174438"
   d="m 266.23538,27.744816 c 0.0454,-0.05777 0.49387,-0.56774 0.99659,-1.133273 l 0.91403,-1.028241 2.29643,-0.04227 c 1.26303,-0.02325 2.30389,-0.03433 2.31302,-0.02463 0.009,0.0097 -0.42833,0.518395 -0.97213,1.13043 l -0.98872,1.112791 -0.52403,0.03874 c -0.28822,0.02131 -1.33262,0.04161 -2.32089,0.04511 -1.70169,0.006 -1.79248,8.07e-4 -1.7143,-0.09866 z"
   id="path23827" /><path
   style="fill:#ffe9d7;fill-opacity:1;stroke:none;stroke-width:0.174438"
   d="m 271.78636,27.604575 c 0.0854,-0.101495 0.54746,-0.625306 1.0268,-1.164025 l 0.87151,-0.979489 1.06855,-0.04247 c 0.5877,-0.02336 1.67714,-0.07956 2.42097,-0.124892 0.74382,-0.04533 1.36038,-0.07445 1.37011,-0.06472 0.01,0.0097 -0.44034,0.531501 -1.00018,1.159478 l -1.01788,1.141777 -0.65299,0.03842 c -0.35914,0.02113 -1.22141,0.06569 -1.91616,0.09902 -0.69474,0.03333 -1.5023,0.07429 -1.79458,0.09102 l -0.53142,0.03042 z"
   id="path23866" /><path
   style="fill:#ffe9d7;fill-opacity:1;stroke:none;stroke-width:0.174438"
   d="m 278.38808,26.387403 c 0.53474,-0.601682 1.00164,-1.126083 1.03757,-1.165337 0.0396,-0.04328 0.527,-0.10884 1.23827,-0.166565 0.64511,-0.05236 1.70812,-0.150617 2.36223,-0.218357 0.65411,-0.06774 1.2392,-0.114592 1.3002,-0.104114 0.085,0.0146 -0.12002,0.278724 -0.87866,1.13184 -0.54427,0.612035 -1.03462,1.131507 -1.08968,1.154382 -0.0943,0.03921 -1.93648,0.211628 -3.73922,0.34999 -0.44662,0.03428 -0.9,0.07353 -1.0075,0.08723 -0.1843,0.02348 -0.13999,-0.0375 0.77679,-1.069065 z"
   id="path23905" /><path
   style="fill:#ffe9d7;fill-opacity:1;stroke:none;stroke-width:0.174438"
   d="m 283.43449,26.847186 c 0.45163,-0.574397 2.01525,-2.25049 2.11969,-2.272165 0.0728,-0.01511 0.64662,-0.08491 1.2752,-0.155121 0.62858,-0.07021 1.73627,-0.2069 2.46154,-0.303756 0.72527,-0.09686 1.32904,-0.176102 1.34171,-0.176102 0.0193,0 -1.72801,1.983571 -2.0234,2.296955 -0.0963,0.102202 -1.6192,0.317661 -3.94528,0.558193 -0.49625,0.05131 -0.99537,0.108786 -1.10916,0.127712 -0.19374,0.03223 -0.20139,0.02741 -0.1203,-0.07572 z"
   id="path23944" /><path
   style="fill:#ffe9d7;fill-opacity:1;stroke:none;stroke-width:0.174438"
   d="m 282.64994,21.612477 c 0.10985,-0.125865 0.47767,-0.541494 0.81739,-0.923619 l 0.61767,-0.694773 1.04136,-0.110133 c 0.57275,-0.06057 1.71806,-0.197608 2.54513,-0.304523 0.82707,-0.106915 1.50848,-0.191131 1.51424,-0.187146 0.0113,0.0078 -1.42112,1.621891 -1.59499,1.7972 -0.11981,0.120809 -0.5676,0.184566 -3.01702,0.429572 -0.84361,0.08438 -1.66652,0.168915 -1.82867,0.187847 l -0.29483,0.03442 z"
   id="path23983" /><path
   style="fill:#ffe9d7;fill-opacity:1;stroke:none;stroke-width:0.174438"
   d="m 276.63879,22.156436 c 0.0519,-0.06113 0.39762,-0.453151 0.76819,-0.871157 l 0.67375,-0.760011 0.43445,-0.03688 c 0.23894,-0.02028 1.27354,-0.10477 2.29911,-0.187748 1.02557,-0.08298 1.97103,-0.167428 2.10101,-0.187668 l 0.23634,-0.0368 -0.20626,0.237773 c -1.21727,1.403241 -1.39376,1.575873 -1.64447,1.60845 -0.29517,0.03835 -2.5548,0.193996 -3.52424,0.242745 -0.38045,0.01913 -0.81336,0.05001 -0.96202,0.06861 -0.25817,0.03231 -0.26605,0.02885 -0.17586,-0.07732 z"
   id="path24022" /><path
   style="fill:#ffe9d7;fill-opacity:1;stroke:none;stroke-width:0.174438"
   d="m 271.06229,22.313985 c 0.0748,-0.08893 0.4016,-0.461233 0.72614,-0.827332 l 0.59007,-0.665634 0.42839,-0.03233 c 0.23562,-0.01778 1.11863,-0.06101 1.96224,-0.09606 0.84362,-0.03505 1.73616,-0.08091 1.98343,-0.101903 l 0.44959,-0.03817 -0.23906,0.270884 c -0.13148,0.148986 -0.48058,0.541861 -0.77577,0.873056 l -0.53672,0.602172 -2.04977,0.07053 c -1.12737,0.03879 -2.19036,0.07862 -2.36218,0.08851 l -0.31242,0.01797 z"
   id="path24061" /><path
   style="fill:#ffe9d7;fill-opacity:1;stroke:none;stroke-width:0.174438"
   d="m 265.51625,22.325172 c 0.1101,-0.127271 0.42869,-0.489704 0.70798,-0.805408 l 0.50781,-0.574005 1.83808,-0.03686 c 1.01094,-0.02027 2.07836,-0.05156 2.37205,-0.06952 l 0.53397,-0.03266 -0.14709,0.174806 c -0.0809,0.09614 -0.41059,0.472044 -0.73264,0.835334 l -0.58554,0.660527 -1.39534,0.03945 c -0.76743,0.0217 -1.82376,0.03952 -2.3474,0.03959 l -0.95206,1.39e-4 z"
   id="path24100" /><path
   style="fill:#ffe9d7;fill-opacity:1;stroke:none;stroke-width:0.174438"
   d="m 261.2139,22.498196 -1.31452,-0.03185 0.69369,-0.781961 0.6937,-0.781961 2.27498,0.02116 c 1.25124,0.01164 2.28101,0.0267 2.28838,0.03346 0.007,0.0068 -0.30196,0.36942 -0.68742,0.80591 l -0.70083,0.79362 -0.96672,-0.01326 c -0.5317,-0.0073 -1.55827,-0.0276 -2.28126,-0.04511 z"
   id="path24139" /><path
   style="fill:#ffe9d7;fill-opacity:1;stroke:none;stroke-width:0.174438"
   d="m 256.78402,22.365822 c -0.64511,-0.02871 -1.39369,-0.07197 -1.6635,-0.09614 l -0.49055,-0.04394 0.67101,-0.765661 0.67101,-0.765661 0.39098,0.02887 c 0.21504,0.01588 1.21655,0.05859 2.22558,0.09492 1.00903,0.03633 1.83884,0.07014 1.84402,0.07513 0.005,0.005 -0.29256,0.352216 -0.66166,0.7716 l -0.67108,0.762517 -0.57143,-0.0047 c -0.31429,-0.0026 -1.09926,-0.02821 -1.74438,-0.05692 z"
   id="path24178" /><path
   style="fill:#ffe9d7;fill-opacity:1;stroke:none;stroke-width:0.174438"
   d="m 263.97205,24.837076 c -0.82707,-0.02567 -1.77805,-0.06445 -2.11329,-0.08618 l -0.60951,-0.03951 0.24714,-0.746576 0.24713,-0.746577 h 2.2421 c 1.23315,0 2.24224,0.0068 2.24242,0.01504 1.8e-4,0.0083 0.0678,0.365774 0.15037,0.794452 0.0825,0.428678 0.15005,0.800862 0.15005,0.827074 0,0.05293 -0.36057,0.05043 -2.55641,-0.01772 z"
   id="path24217" /><path
   style="fill:#ffe9d7;fill-opacity:1;stroke:none;stroke-width:0.174438"
   d="m 288.66707,20.952169 c 0.11409,-0.127539 0.50085,-0.56232 0.85947,-0.96618 0.51557,-0.580624 0.6918,-0.740943 0.84211,-0.766077 0.10454,-0.01748 0.89872,-0.139928 1.76484,-0.272101 0.86612,-0.132172 1.97198,-0.309775 2.45748,-0.394672 0.4855,-0.0849 0.89282,-0.144262 0.90516,-0.131922 0.0165,0.01651 -1.20381,1.436746 -1.65458,1.925656 -0.0674,0.0731 -2.15653,0.400274 -5.11433,0.800937 l -0.26759,0.03625 z"
   id="path24256" /><path
   style="fill:#ffe9d7;fill-opacity:1;stroke:none;stroke-width:0.174438"
   d="m 295.74208,19.216353 0.89957,-1.007782 2.79317,-0.560935 c 1.53625,-0.308514 2.80195,-0.561802 2.81267,-0.562863 0.0238,-0.0024 -1.16696,1.34057 -1.58341,1.785737 l -0.30076,0.321491 -1.02256,0.205609 c -0.95453,0.191928 -3.6401,0.689398 -4.2341,0.784317 l -0.26414,0.04221 z"
   id="path24295" /><path
   style="fill:#ffe9d7;fill-opacity:1;stroke:none;stroke-width:0.174438"
   d="m 293.56092,22.741442 c 0.0143,-0.05205 0.0433,-0.365322 0.0643,-0.696152 0.0657,-1.034206 0.0344,-0.972337 0.53339,-1.054047 0.73506,-0.120366 3.7334,-0.66227 3.83305,-0.692764 0.0725,-0.02217 0.17649,0.160902 0.44565,0.784217 0.19313,0.447229 0.34007,0.823645 0.32654,0.836479 -0.0285,0.02703 -3.4745,0.641057 -4.52156,0.805681 -0.63415,0.09971 -0.70475,0.101423 -0.68137,0.01659 z"
   id="path24334" /><path
   style="fill:#ffe9d7;fill-opacity:1;stroke:none;stroke-width:0.174438"
   d="m 296.01334,25.097947 c 0.9947,-1.166633 2.08651,-2.339393 2.21068,-2.374594 0.0849,-0.02406 0.99343,-0.2092 2.019,-0.41142 1.02557,-0.20222 2.21401,-0.446743 2.64096,-0.543385 0.42696,-0.09664 0.7861,-0.165902 0.79809,-0.153912 0.0261,0.0261 -2.12711,2.458399 -2.22684,2.51547 -0.10876,0.06224 -5.29017,1.073105 -5.50045,1.073105 -0.0172,0 0.009,-0.04737 0.0586,-0.105264 z"
   id="path24373" /><path
   style="fill:#ffe9d7;fill-opacity:1;stroke:none;stroke-width:0.174438"
   d="m 303.68496,22.611868 1.13005,-1.268024 1.98472,-0.499542 c 1.09159,-0.274749 2.42815,-0.62537 2.97014,-0.779159 0.54198,-0.153789 0.9949,-0.270138 1.00648,-0.258553 0.0286,0.02862 -2.24196,2.583281 -2.34951,2.64347 -0.18212,0.101919 -5.57292,1.429832 -5.80456,1.429832 -0.0371,0 0.44114,-0.570611 1.06268,-1.268024 z"
   id="path24412" /><path
   style="fill:#ffe9d7;fill-opacity:1;stroke:none;stroke-width:0.174438"
   d="m 290.02679,25.638657 c 0.25948,-0.289832 0.73558,-0.825162 1.058,-1.189622 l 0.58621,-0.662655 0.73711,-0.105648 c 0.87274,-0.125086 4.3428,-0.693115 4.55114,-0.744995 0.10354,-0.02578 -0.1682,0.317027 -0.95313,1.202416 -0.77293,0.871852 -1.14522,1.24834 -1.25762,1.271788 -0.55603,0.116003 -4.82988,0.755683 -5.04888,0.755683 -0.12784,0 -0.0899,-0.06116 0.32717,-0.526967 z"
   id="path24451" /><path
   style="fill:#ffe9d7;fill-opacity:1;stroke:none;stroke-width:0.174438"
   d="m 301.60068,18.788808 c 0.19308,-0.214893 1.62774,-1.83973 1.67974,-1.902408 0.021,-0.02534 0.76727,-0.218741 1.65833,-0.429786 0.89106,-0.211046 2.21405,-0.534728 2.93998,-0.719294 0.72593,-0.184567 1.32641,-0.329035 1.3344,-0.321042 0.008,0.008 -0.41874,0.501279 -0.94831,1.096191 l -0.96284,1.081658 -1.13047,0.281233 c -0.97308,0.242076 -3.87832,0.913013 -4.51494,1.042683 l -0.21053,0.04288 z"
   id="path24490" /><path
   style="fill:#ffe9d7;fill-opacity:1;stroke:none;stroke-width:0.174438"
   d="m 308.64142,17.037731 c 0.19628,-0.208622 1.68793,-1.888722 1.7105,-1.9266 0.006,-0.0092 0.7784,-0.233878 1.71753,-0.499184 0.93913,-0.265305 2.3265,-0.671846 3.08304,-0.903425 0.75653,-0.231578 1.38355,-0.412963 1.39337,-0.403079 0.01,0.0099 -0.42413,0.518729 -0.96432,1.130764 -0.7808,0.884657 -1.02947,1.129 -1.21291,1.191856 -0.82606,0.283038 -5.65873,1.635234 -5.84423,1.635234 -0.066,0 -0.0302,-0.06912 0.11702,-0.225566 z"
   id="path24529" /><path
   style="fill:#ffe9d7;fill-opacity:1;stroke:none;stroke-width:0.174438"
   d="m 310.80894,20.777317 1.22365,-1.363299 1.65415,-0.525862 c 0.90978,-0.289224 2.16844,-0.707664 2.79701,-0.929867 0.62858,-0.222203 1.19684,-0.420224 1.2628,-0.440047 0.0884,-0.02656 0.0567,0.03547 -0.12031,0.235888 -0.13212,0.149562 -0.70679,0.797681 -1.27703,1.440267 l -1.0368,1.168336 -1.21885,0.404397 c -1.08863,0.361188 -3.89335,1.222149 -4.33726,1.331399 -0.13839,0.03406 0.0624,-0.217968 1.05264,-1.321212 z"
   id="path24568" /><path
   style="fill:#ffe9d7;fill-opacity:1;stroke:none;stroke-width:0.174438"
   d="m 316.78978,19.721916 c 1.62354,-1.846384 2.52098,-2.820468 2.62812,-2.852581 0.30228,-0.09059 2.56697,-1.046641 3.78169,-1.596456 1.34087,-0.606914 3.14026,-1.49146 4.13603,-2.033188 0.31134,-0.169378 0.57195,-0.301034 0.57914,-0.29257 0.007,0.0085 -0.68675,0.799168 -1.5421,1.75712 l -1.55517,1.74173 -1.0691,0.504381 c -2.06793,0.975612 -5.90917,2.565399 -6.93381,2.869713 l -0.15037,0.04466 z"
   id="path24607" /><path
   style="fill:#ffe9d7;fill-opacity:1;stroke:none;stroke-width:0.174438"
   d=""
   id="path24646" /><path
   style="fill:#ffe9d7;fill-opacity:1;stroke:none;stroke-width:0.174438"
   d="m 315.80391,15.163066 c 0.01,-0.02416 0.46402,-0.54704 1.00893,-1.161962 l 0.99074,-1.11804 1.44975,-0.483145 c 0.79736,-0.265729 2.10638,-0.717076 2.90894,-1.002993 0.80255,-0.285916 1.47204,-0.506987 1.48776,-0.491268 0.0303,0.03027 -1.93271,2.270399 -2.04677,2.33575 -0.27382,0.156889 -5.8311,1.998334 -5.79935,1.921658 z"
   id="path24685" /><path
   style="fill:#ffe9d7;fill-opacity:1;stroke:none;stroke-width:0.174438"
   d="m 323.14059,12.586568 c 0.61039,-0.722196 2.07318,-2.318182 2.14791,-2.343493 0.47385,-0.16049 3.82993,-1.5243193 4.99988,-2.0318273 1.59055,-0.6899663 2.82774,-1.1933655 2.85745,-1.1626705 0.0102,0.010532 -0.47292,0.5694851 -1.07359,1.2421182 l -1.09213,1.2229693 -0.69173,0.3020579 c -2.08201,0.9091444 -6.99223,2.8761094 -7.17976,2.8761094 -0.0313,0 -0.017,-0.04737 0.032,-0.105264 z"
   id="path24724" /><path
   style="fill:#ffe9d7;fill-opacity:1;stroke:none;stroke-width:0.174438"
   d="m 326.49887,15.550189 c 0,-0.05578 3.31253,-3.76062 3.3624,-3.76062 0.0249,0 0.58452,-0.354907 1.24368,-0.788681 1.2897,-0.84871 2.76213,-1.9294564 2.84843,-2.0907193 0.0859,-0.1605507 0.006,-0.4086218 -0.15467,-0.4819717 -0.2156,-0.098234 -0.2695,-0.088269 -0.77938,0.1440882 -0.25503,0.1162235 -0.47213,0.2028828 -0.48244,0.192576 -0.0103,-0.010307 0.37957,-0.4688292 0.86639,-1.0189387 0.99732,-1.1269769 0.94155,-1.0938569 1.84754,-1.0972343 0.46906,-0.00175 0.5856,0.019713 0.87266,0.1606947 0.52502,0.257855 0.69692,0.7097763 0.51196,1.3459916 -0.1711,0.5885967 -0.38045,0.8387613 -1.41469,1.6905558 -2.05005,1.6883997 -4.54901,3.3936057 -7.01155,4.7844517 -1.39148,0.785905 -1.71033,0.957383 -1.71033,0.919807 z"
   id="path24802" /><path
   style="fill:#ffe9d7;fill-opacity:1;stroke:none;stroke-width:0.174438"
   d="m 310.46867,32.1924 c 0.0331,-0.03363 1.2376,-0.648642 2.67671,-1.366704 5.52633,-2.757431 8.62788,-4.461321 11.57649,-6.359729 2.56867,-1.653798 4.71919,-3.37565 5.80711,-4.64957 0.83938,-0.982893 0.75559,-0.905488 0.87388,-0.807322 0.0934,0.07751 0.10139,0.166709 0.07,0.779906 -0.10149,1.979829 -0.73583,3.341399 -1.93267,4.148355 -2.27723,1.535392 -10.60818,5.33838 -16.14136,7.368355 -1.64411,0.60318 -3.07813,1.037142 -2.93012,0.886709 z"
   id="path24841" /><path
   style="fill:#ffe9d7;fill-opacity:1;stroke:none;stroke-width:0.123346"
   d="m 359.89367,7.2683864 c -1.01489,-0.055181 -5.32967,-0.2423509 -7.71976,-0.3348738 -5.42023,-0.2098233 -8.3807,-0.2898525 -11.90926,-0.3219374 -1.46207,-0.013295 -2.81934,-0.041824 -3.01614,-0.063398 -0.30069,-0.032963 -0.40256,-0.065778 -0.638,-0.2055276 -0.80123,-0.4755897 -1.84716,-0.5111415 -3.27875,-0.1114475 -0.47214,0.1318199 -0.62214,0.1531747 -1.33979,0.1907467 -0.4621,0.024192 -3.50811,0.042474 -7.11366,0.042694 l -6.30553,3.855e-4 V 5.5293006 4.5935728 l 4.60421,3.594e-4 c 9.32533,7.282e-4 19.71225,0.1667025 27.95486,0.4466959 2.35789,0.080095 7.32468,0.2907368 9.15525,0.3882745 l 0.52103,0.027762 V 6.3861773 7.31569 L 360.6699,7.30938 c -0.076,-0.00347 -0.42533,-0.021917 -0.77623,-0.040996 z"
   id="path24997" /><path
   style="fill:#ffe9d7;fill-opacity:1;stroke:none;stroke-width:0.0113281"
   d="M 313.48437,6.5369518 V 6.484375 l 0.0771,4.61e-5 c 0.10018,5.98e-5 4.65344,-0.057638 4.8086,-0.060934 l 0.11816,-0.00251 v -0.924356 -0.924356 l -0.0693,0.00108 c -0.0381,5.937e-4 -1.1038,0.015003 -2.36816,0.03202 -1.26435,0.017017 -2.35903,0.032102 -2.43262,0.033523 l -0.13379,0.00258 V 4.6177873 4.594104 l 0.0127,-0.00192 c 0.007,-0.00105 0.33262,-0.00382 0.72363,-0.00614 0.39102,-0.00232 0.95352,-0.00593 1.25,-0.00802 1.20219,-0.00845 3.57052,-0.019443 5.53809,-0.025694 l 0.80371,-0.00255 v 0.010267 0.010267 h -1.62695 -1.62696 v 0.9628906 0.9628906 h 1.62696 1.62695 v 0.025391 0.025391 l -0.13965,4.41e-5 c -0.88377,2.786e-4 -4.57313,0.016601 -6.16308,0.027267 -0.31582,0.00212 -0.85987,0.00559 -1.20899,0.00772 -0.34912,0.00213 -0.67563,0.00471 -0.72558,0.00575 l -0.0908,0.00187 z"
   id="path25036" /><path
   style="fill:#7aaaaa;fill-opacity:1;stroke:none;stroke-width:0.256326"
   d="m 786.5679,54.61703 c 0,-1.357348 0.0127,-2.467905 0.0282,-2.467905 0.0513,0 6.36416,2.187198 7.15762,2.479892 0.42773,0.157787 0.74593,0.315975 0.7071,0.351531 -0.0793,0.0726 -2.3253,0.681155 -5.66116,1.533883 l -2.23181,0.570504 z"
   id="path25075" /></svg>
